<svg width="100" height="100" viewBox="0 0 100 100" fill="none" xmlns="http://www.w3.org/2000/svg">
<circle cx="50" cy="50" r="49" fill="#E31F71" fill-opacity="0.15" stroke="#E31F71" stroke-width="2"/>
<g clip-path="url(#clip0_173_62)">
<path d="M36.729 64.7251C35.9703 64.7262 35.2376 64.4481 34.6706 63.9439L18.9846 50.0001L35.5417 35.2813C36.1589 34.7534 36.9586 34.4887 37.7688 34.5442C38.5791 34.5997 39.3352 34.971 39.8746 35.5782C40.4139 36.1854 40.6935 36.98 40.6531 37.7911C40.6127 38.6023 40.2556 39.3652 39.6585 39.9158L28.3156 50.0001L38.7874 59.3063C39.2579 59.7237 39.5902 60.2744 39.7404 60.8852C39.8905 61.496 39.8513 62.138 39.6279 62.7259C39.4046 63.3139 39.0077 63.82 38.4899 64.1771C37.9721 64.5342 37.358 64.7253 36.729 64.7251ZM64.4585 64.7189L81.0156 50.0001L65.3296 36.0563C64.715 35.5104 63.9088 35.231 63.0882 35.2795C62.2676 35.328 61.4999 35.7006 60.954 36.3152C60.408 36.9297 60.1286 37.736 60.1772 38.5566C60.2257 39.3772 60.5982 40.1449 61.2128 40.6908L71.6846 50.0001L60.3417 60.0813C59.7267 60.6272 59.3538 61.3951 59.305 62.216C59.2561 63.0369 59.5354 63.8435 60.0813 64.4585C60.6272 65.0735 61.3951 65.4464 62.216 65.4952C63.0369 65.5441 63.8435 65.2648 64.4585 64.7189ZM49.9567 69.1116L56.1567 31.9116C56.236 31.505 56.233 31.0867 56.1479 30.6813C56.0628 30.276 55.8973 29.8918 55.6612 29.5514C55.4252 29.2111 55.1233 28.9215 54.7734 28.6998C54.4235 28.478 54.0327 28.3287 53.6242 28.2605C53.2156 28.1924 52.7975 28.2068 52.3946 28.3029C51.9917 28.399 51.6122 28.5749 51.2784 28.8202C50.9446 29.0655 50.6633 29.3751 50.4512 29.7309C50.2392 30.0867 50.1005 30.4814 50.0435 30.8917L43.8435 68.0917C43.7642 68.4983 43.7672 68.9166 43.8523 69.322C43.9374 69.7273 44.1029 70.1115 44.339 70.4519C44.5751 70.7922 44.877 71.0818 45.2269 71.3035C45.5767 71.5253 45.9675 71.6746 46.3761 71.7428C46.7846 71.8109 47.2027 71.7965 47.6056 71.7004C48.0085 71.6043 48.3881 71.4284 48.7219 71.1831C49.0557 70.9378 49.3369 70.6282 49.549 70.2724C49.7611 69.9166 49.8997 69.5219 49.9567 69.1116Z" fill="#E31F71"/>
</g>
<defs>
<clipPath id="clip0_173_62">
<rect width="62" height="62" fill="white" transform="translate(19 19)"/>
</clipPath>
</defs>
</svg>
