<svg width="1916" height="943" viewBox="0 0 1916 943" fill="none" xmlns="http://www.w3.org/2000/svg">
<g clip-path="url(#clip0_179_102)">
<path fill-rule="evenodd" clip-rule="evenodd" d="M-57 -3L25.374 13.1393C107.748 29.2786 272.496 61.5573 437.244 68.4741C601.992 75.391 766.74 56.946 931.488 50.0292C1096.24 43.1123 1266.48 58.6665 1425.73 50.0292C1584.98 41.3919 1767.48 52.3348 1845.48 52.3348C1923.48 52.3348 1919.98 52.3348 1919.98 52.3348V-3H1837.6C1755.23 -3 1590.48 -3 1425.73 -3C1260.98 -3 1096.24 -3 931.488 -3C766.74 -3 601.992 -3 437.244 -3C272.496 -3 107.748 -3 25.374 -3H-57Z" fill="#212121"/>
</g>
<defs>
<clipPath id="clip0_179_102">
<rect width="1920" height="943" fill="white" transform="translate(-4)"/>
</clipPath>
</defs>
</svg>
