<svg width="242" height="157" viewBox="0 0 242 157" fill="none" xmlns="http://www.w3.org/2000/svg">
<circle cx="2" cy="2" r="2" fill="#74FAC0"/>
<circle cx="19" cy="2.00002" r="2" fill="#74FAC0"/>
<circle cx="2" cy="87" r="2" fill="#74FAC0"/>
<circle cx="19" cy="87" r="2" fill="#74FAC0"/>
<circle cx="36" cy="87" r="2" fill="#74FAC0"/>
<circle cx="53" cy="87" r="2" fill="#74FAC0"/>
<circle cx="70" cy="87" r="2" fill="#74FAC0"/>
<circle cx="87" cy="87" r="2" fill="#74FAC0"/>
<circle cx="104" cy="87" r="2" fill="#74FAC0"/>
<circle cx="121" cy="87" r="2" fill="#74FAC0"/>
<path d="M121 85C121.53 85 122.039 85.2107 122.414 85.5858C122.789 85.9609 123 86.4696 123 87C123 87.5304 122.789 88.0391 122.414 88.4142C122.039 88.7893 121.53 89 121 89L121 87V85Z" fill="#212121"/>
<circle cx="155" cy="87" r="2" fill="#212121"/>
<circle cx="172" cy="87" r="2" fill="#212121"/>
<circle cx="189" cy="87" r="2" fill="#212121"/>
<circle cx="206" cy="87" r="2" fill="#212121"/>
<circle cx="223" cy="87" r="2" fill="#212121"/>
<circle cx="240" cy="87" r="2" fill="#212121"/>
<circle cx="2" cy="104" r="2" fill="#74FAC0"/>
<circle cx="19" cy="104" r="2" fill="#74FAC0"/>
<circle cx="36" cy="104" r="2" fill="#74FAC0"/>
<circle cx="53" cy="104" r="2" fill="#74FAC0"/>
<circle cx="70" cy="104" r="2" fill="#74FAC0"/>
<circle cx="87" cy="104" r="2" fill="#74FAC0"/>
<circle cx="104" cy="104" r="2" fill="#74FAC0"/>
<circle cx="121" cy="104" r="2" fill="#74FAC0"/>
<path d="M121 102C121.53 102 122.039 102.211 122.414 102.586C122.789 102.961 123 103.47 123 104C123 104.53 122.789 105.039 122.414 105.414C122.039 105.789 121.53 106 121 106L121 104V102Z" fill="#212121"/>
<circle cx="138" cy="104" r="2" fill="#212121"/>
<circle cx="138" cy="87" r="2" fill="#212121"/>
<circle cx="155" cy="104" r="2" fill="#212121"/>
<circle cx="172" cy="104" r="2" fill="#212121"/>
<circle cx="189" cy="104" r="2" fill="#212121"/>
<circle cx="206" cy="104" r="2" fill="#212121"/>
<circle cx="223" cy="104" r="2" fill="#212121"/>
<circle cx="240" cy="104" r="2" fill="#212121"/>
<circle cx="2" cy="121" r="2" fill="#74FAC0"/>
<circle cx="19" cy="121" r="2" fill="#74FAC0"/>
<circle cx="36" cy="121" r="2" fill="#74FAC0"/>
<circle cx="53" cy="121" r="2" fill="#74FAC0"/>
<circle cx="70" cy="121" r="2" fill="#74FAC0"/>
<circle cx="87" cy="121" r="2" fill="#74FAC0"/>
<circle cx="104" cy="121" r="2" fill="#74FAC0"/>
<circle cx="121" cy="121" r="2" fill="#74FAC0"/>
<path d="M121 119C121.53 119 122.039 119.211 122.414 119.586C122.789 119.961 123 120.47 123 121C123 121.53 122.789 122.039 122.414 122.414C122.039 122.789 121.53 123 121 123L121 121V119Z" fill="#212121"/>
<circle cx="138" cy="121" r="2" fill="#212121"/>
<circle cx="155" cy="121" r="2" fill="#212121"/>
<circle cx="172" cy="121" r="2" fill="#212121"/>
<circle cx="189" cy="121" r="2" fill="#212121"/>
<circle cx="206" cy="121" r="2" fill="#212121"/>
<circle cx="223" cy="121" r="2" fill="#212121"/>
<circle cx="240" cy="121" r="2" fill="#212121"/>
<circle cx="2" cy="138" r="2" fill="#74FAC0"/>
<circle cx="19" cy="138" r="2" fill="#74FAC0"/>
<circle cx="36" cy="138" r="2" fill="#74FAC0"/>
<circle cx="53" cy="138" r="2" fill="#74FAC0"/>
<circle cx="70" cy="138" r="2" fill="#74FAC0"/>
<circle cx="87" cy="138" r="2" fill="#74FAC0"/>
<circle cx="104" cy="138" r="2" fill="#74FAC0"/>
<circle cx="121" cy="138" r="2" fill="#74FAC0"/>
<circle cx="138" cy="138" r="2" fill="#212121"/>
<circle cx="155" cy="138" r="2" fill="#212121"/>
<circle cx="172" cy="138" r="2" fill="#212121"/>
<path d="M121 136C121.53 136 122.039 136.211 122.414 136.586C122.789 136.961 123 137.47 123 138C123 138.53 122.789 139.039 122.414 139.414C122.039 139.789 121.53 140 121 140L121 138V136Z" fill="#212121"/>
<circle cx="189" cy="138" r="2" fill="#212121"/>
<circle cx="206" cy="138" r="2" fill="#212121"/>
<circle cx="223" cy="138" r="2" fill="#212121"/>
<circle cx="240" cy="138" r="2" fill="#212121"/>
<circle cx="2" cy="155" r="2" fill="#74FAC0"/>
<circle cx="19" cy="155" r="2" fill="#74FAC0"/>
<circle cx="36" cy="155" r="2" fill="#74FAC0"/>
<circle cx="53" cy="155" r="2" fill="#74FAC0"/>
<circle cx="70" cy="155" r="2" fill="#74FAC0"/>
<circle cx="87" cy="155" r="2" fill="#74FAC0"/>
<circle cx="104" cy="155" r="2" fill="#74FAC0"/>
<circle cx="121" cy="155" r="2" fill="#74FAC0"/>
<circle cx="138" cy="155" r="2" fill="#212121"/>
<circle cx="155" cy="155" r="2" fill="#212121"/>
<circle cx="172" cy="155" r="2" fill="#212121"/>
<circle cx="189" cy="155" r="2" fill="#212121"/>
<circle cx="206" cy="155" r="2" fill="#212121"/>
<circle cx="223" cy="155" r="2" fill="#212121"/>
<path d="M121 153C121.53 153 122.039 153.211 122.414 153.586C122.789 153.961 123 154.47 123 155C123 155.53 122.789 156.039 122.414 156.414C122.039 156.789 121.53 157 121 157L121 155V153Z" fill="#212121"/>
<circle cx="240" cy="155" r="2" fill="#212121"/>
<circle cx="36" cy="2.00002" r="2" fill="#74FAC0"/>
<circle cx="53" cy="2.00002" r="2" fill="#74FAC0"/>
<circle cx="70" cy="2.00002" r="2" fill="#74FAC0"/>
<circle cx="87" cy="2.00002" r="2" fill="#74FAC0"/>
<circle cx="104" cy="2.00002" r="2" fill="#74FAC0"/>
<circle cx="121" cy="2.00002" r="2" fill="#74FAC0"/>
<path d="M121 0C121.53 0 122.039 0.210714 122.414 0.585786C122.789 0.960859 123 1.46957 123 2C123 2.53043 122.789 3.03914 122.414 3.41421C122.039 3.78929 121.53 4 121 4L121 2V0Z" fill="#212121"/>
<circle cx="155" cy="2.00002" r="2" fill="#212121"/>
<circle cx="172" cy="2.00002" r="2" fill="#212121"/>
<circle cx="189" cy="2.00002" r="2" fill="#212121"/>
<circle cx="206" cy="2.00002" r="2" fill="#212121"/>
<circle cx="223" cy="2.00002" r="2" fill="#212121"/>
<circle cx="240" cy="2.00002" r="2" fill="#212121"/>
<circle cx="2" cy="19" r="2" fill="#74FAC0"/>
<circle cx="19" cy="19" r="2" fill="#74FAC0"/>
<circle cx="36" cy="19" r="2" fill="#74FAC0"/>
<circle cx="53" cy="19" r="2" fill="#74FAC0"/>
<circle cx="70" cy="19" r="2" fill="#74FAC0"/>
<circle cx="87" cy="19" r="2" fill="#74FAC0"/>
<circle cx="104" cy="19" r="2" fill="#74FAC0"/>
<circle cx="121" cy="19" r="2" fill="#74FAC0"/>
<path d="M121 17C121.53 17 122.039 17.2107 122.414 17.5858C122.789 17.9609 123 18.4696 123 19C123 19.5304 122.789 20.0391 122.414 20.4142C122.039 20.7893 121.53 21 121 21L121 19V17Z" fill="#212121"/>
<circle cx="138" cy="19" r="2" fill="#212121"/>
<circle cx="138" cy="2" r="2" fill="#212121"/>
<circle cx="155" cy="19" r="2" fill="#212121"/>
<circle cx="172" cy="19" r="2" fill="#212121"/>
<circle cx="189" cy="19" r="2" fill="#212121"/>
<circle cx="206" cy="19" r="2" fill="#212121"/>
<circle cx="223" cy="19" r="2" fill="#212121"/>
<circle cx="240" cy="19" r="2" fill="#212121"/>
<circle cx="2" cy="36" r="2" fill="#74FAC0"/>
<circle cx="19" cy="36" r="2" fill="#74FAC0"/>
<circle cx="36" cy="36" r="2" fill="#74FAC0"/>
<circle cx="53" cy="36" r="2" fill="#74FAC0"/>
<circle cx="70" cy="36" r="2" fill="#74FAC0"/>
<circle cx="87" cy="36" r="2" fill="#74FAC0"/>
<circle cx="104" cy="36" r="2" fill="#74FAC0"/>
<circle cx="121" cy="36" r="2" fill="#74FAC0"/>
<path d="M121 34C121.53 34 122.039 34.2107 122.414 34.5858C122.789 34.9609 123 35.4696 123 36C123 36.5304 122.789 37.0391 122.414 37.4142C122.039 37.7893 121.53 38 121 38L121 36V34Z" fill="#212121"/>
<circle cx="138" cy="36" r="2" fill="#212121"/>
<circle cx="155" cy="36" r="2" fill="#212121"/>
<circle cx="172" cy="36" r="2" fill="#212121"/>
<circle cx="189" cy="36" r="2" fill="#212121"/>
<circle cx="206" cy="36" r="2" fill="#212121"/>
<circle cx="223" cy="36" r="2" fill="#212121"/>
<circle cx="240" cy="36" r="2" fill="#212121"/>
<circle cx="2" cy="53" r="2" fill="#74FAC0"/>
<circle cx="19" cy="53" r="2" fill="#74FAC0"/>
<circle cx="36" cy="53" r="2" fill="#74FAC0"/>
<circle cx="53" cy="53" r="2" fill="#74FAC0"/>
<circle cx="70" cy="53" r="2" fill="#74FAC0"/>
<circle cx="87" cy="53" r="2" fill="#74FAC0"/>
<circle cx="104" cy="53" r="2" fill="#74FAC0"/>
<circle cx="121" cy="53" r="2" fill="#74FAC0"/>
<circle cx="138" cy="53" r="2" fill="#212121"/>
<circle cx="155" cy="53" r="2" fill="#212121"/>
<circle cx="172" cy="53" r="2" fill="#212121"/>
<path d="M121 51C121.53 51 122.039 51.2107 122.414 51.5858C122.789 51.9609 123 52.4696 123 53C123 53.5304 122.789 54.0391 122.414 54.4142C122.039 54.7893 121.53 55 121 55L121 53V51Z" fill="#212121"/>
<circle cx="189" cy="53" r="2" fill="#212121"/>
<circle cx="206" cy="53" r="2" fill="#212121"/>
<circle cx="223" cy="53" r="2" fill="#212121"/>
<circle cx="240" cy="53" r="2" fill="#212121"/>
<circle cx="2" cy="70" r="2" fill="#74FAC0"/>
<circle cx="19" cy="70" r="2" fill="#74FAC0"/>
<circle cx="36" cy="70" r="2" fill="#74FAC0"/>
<circle cx="53" cy="70" r="2" fill="#74FAC0"/>
<circle cx="70" cy="70" r="2" fill="#74FAC0"/>
<circle cx="87" cy="70" r="2" fill="#74FAC0"/>
<circle cx="104" cy="70" r="2" fill="#74FAC0"/>
<circle cx="121" cy="70" r="2" fill="#74FAC0"/>
<circle cx="138" cy="70" r="2" fill="#212121"/>
<circle cx="155" cy="70" r="2" fill="#212121"/>
<circle cx="172" cy="70" r="2" fill="#212121"/>
<circle cx="189" cy="70" r="2" fill="#212121"/>
<circle cx="206" cy="70" r="2" fill="#212121"/>
<circle cx="223" cy="70" r="2" fill="#212121"/>
<path d="M121 68C121.53 68 122.039 68.2107 122.414 68.5858C122.789 68.9609 123 69.4696 123 70C123 70.5304 122.789 71.0391 122.414 71.4142C122.039 71.7893 121.53 72 121 72L121 70V68Z" fill="#212121"/>
<circle cx="240" cy="70" r="2" fill="#212121"/>
</svg>
