<svg width="227" height="114" viewBox="0 0 227 114" fill="none" xmlns="http://www.w3.org/2000/svg">
<path d="M3.081 101.672L4.8295 102.315L2.6975 107.476H7.1955V109.017H0.5785V107.652L3.081 101.672ZM6.292 105.305V110.908H4.3225L4.2965 107.684L4.5565 105.305H6.292ZM9.77092 112.364L8.16542 111.63L13.6319 100.287L15.2244 101.022L9.77092 112.364ZM22.2848 101.899L22.0573 103.368H18.7618V105.312C18.9828 105.208 19.2103 105.134 19.4443 105.091C19.6783 105.048 19.895 105.026 20.0943 105.026C20.558 105.026 20.9805 105.143 21.3618 105.377C21.7475 105.611 22.053 105.947 22.2783 106.384C22.508 106.822 22.6228 107.344 22.6228 107.951C22.6228 108.558 22.4733 109.101 22.1743 109.582C21.8797 110.063 21.468 110.443 20.9393 110.72C20.4107 110.993 19.7932 111.129 19.0868 111.129C18.4325 111.129 17.854 111.008 17.3513 110.765C16.8487 110.518 16.4305 110.191 16.0968 109.784L17.2798 108.705C17.4965 108.982 17.7457 109.195 18.0273 109.342C18.3133 109.485 18.6123 109.556 18.9243 109.556C19.401 109.556 19.7823 109.411 20.0683 109.121C20.3587 108.831 20.5038 108.451 20.5038 107.983C20.5038 107.611 20.4518 107.312 20.3478 107.086C20.2482 106.861 20.1073 106.699 19.9253 106.599C19.7433 106.495 19.531 106.443 19.2883 106.443C19.1237 106.443 18.9482 106.465 18.7618 106.508C18.5755 106.551 18.3827 106.629 18.1833 106.742H16.7988V101.899H22.2848Z" fill="#F8F8F8" fill-opacity="0.5"/>
<rect x="0.12207" width="226.878" height="93.6296" rx="10" fill="#2D2E32"/>
<g clip-path="url(#clip0_398_26)">
<path d="M39.1524 93.8851C48.6167 93.8851 56.2979 86.8943 56.2979 78.2801V62.6752H39.1524C29.688 62.6752 22.0068 69.6662 22.0068 78.2801C22.0068 86.8943 29.688 93.8851 39.1524 93.8851Z" fill="#17D683"/>
<path d="M22.0068 47.0703C22.0068 38.4564 29.688 31.4653 39.1524 31.4653H56.2979V62.6752H39.1524C29.688 62.6752 22.0068 55.6842 22.0068 47.0703Z" fill="#17D683"/>
<path d="M22.0071 15.8603C22.0071 7.24644 29.6883 0.255432 39.1526 0.255432H56.2982V31.4653H39.1526C29.6883 31.4653 22.0071 24.4743 22.0071 15.8603Z" fill="#17D683"/>
<path d="M56.2979 0.255432H73.4434C82.9078 0.255432 90.589 7.24644 90.589 15.8603C90.589 24.4743 82.9078 31.4653 73.4434 31.4653H56.2979V0.255432Z" fill="#74FAC0"/>
<path d="M90.589 47.0703C90.589 55.6842 82.9078 62.6752 73.4434 62.6752C63.9791 62.6752 56.2979 55.6842 56.2979 47.0703C56.2979 38.4564 63.9791 31.4653 73.4434 31.4653C82.9078 31.4653 90.589 38.4564 90.589 47.0703Z" fill="#17D683"/>
<path d="M102.016 30.0556V56.9053H98.4497V30.0556H102.016ZM113.289 42.1343V45.0479H101.24V42.1343H113.289ZM115.119 30.0556V32.9692H101.24V30.0556H115.119ZM122.566 36.9524V56.9053H119.129V36.9524H122.566ZM118.869 31.66C118.869 31.1067 119.036 30.6396 119.368 30.2585C119.714 29.8773 120.218 29.6868 120.884 29.6868C121.537 29.6868 122.036 29.8773 122.38 30.2585C122.738 30.6396 122.916 31.1067 122.916 31.66C122.916 32.1886 122.738 32.6435 122.38 33.0245C122.036 33.3934 121.537 33.5778 120.884 33.5778C120.218 33.5778 119.714 33.3934 119.368 33.0245C119.036 32.6435 118.869 32.1886 118.869 31.66ZM141.008 36.9524H144.113V56.4811C144.113 58.2391 143.755 59.739 143.041 60.9807C142.326 62.2223 141.329 63.1628 140.047 63.8021C138.778 64.4537 137.312 64.7794 135.649 64.7794C134.959 64.7794 134.146 64.6688 133.21 64.4475C132.286 64.2385 131.374 63.8759 130.475 63.3595C129.588 62.8555 128.843 62.1732 128.239 61.3126L130.032 59.2841C130.869 60.2922 131.744 60.9929 132.655 61.3864C133.58 61.7798 134.491 61.9765 135.39 61.9765C136.475 61.9765 137.411 61.7736 138.199 61.3679C138.988 60.9622 139.597 60.3598 140.028 59.5607C140.472 58.7739 140.694 57.8027 140.694 56.6471V41.3414L141.008 36.9524ZM127.241 47.1502V46.7629C127.241 45.2385 127.419 43.8554 127.777 42.6137C128.146 41.3598 128.67 40.2841 129.347 39.3866C130.037 38.4892 130.869 37.8008 131.842 37.3213C132.816 36.8295 133.912 36.5836 135.131 36.5836C136.388 36.5836 137.485 36.8049 138.421 37.2475C139.369 37.6778 140.17 38.3109 140.823 39.1469C141.489 39.9706 142.012 40.9664 142.394 42.1343C142.776 43.3022 143.041 44.6237 143.189 46.099V47.7956C143.053 49.2585 142.788 50.5739 142.394 51.7419C142.012 52.9098 141.489 53.9056 140.823 54.7293C140.17 55.5529 139.369 56.1861 138.421 56.6286C137.472 57.0589 136.364 57.2741 135.095 57.2741C133.9 57.2741 132.816 57.022 131.842 56.518C130.881 56.014 130.056 55.3071 129.366 54.3973C128.676 53.4876 128.146 52.4181 127.777 51.1887C127.419 49.9469 127.241 48.6008 127.241 47.1502ZM130.659 46.7629V47.1502C130.659 48.146 130.758 49.0803 130.956 49.9532C131.165 50.826 131.479 51.5944 131.898 52.2583C132.329 52.9221 132.877 53.4446 133.543 53.8256C134.207 54.1945 135.002 54.3789 135.926 54.3789C137.06 54.3789 137.996 54.1392 138.735 53.6597C139.474 53.1802 140.059 52.5471 140.49 51.7603C140.934 50.9735 141.279 50.1191 141.526 49.197V44.7529C141.39 44.0767 141.18 43.4251 140.897 42.7981C140.626 42.1589 140.269 41.5934 139.826 41.1016C139.394 40.5975 138.858 40.198 138.217 39.9029C137.577 39.6079 136.826 39.4604 135.963 39.4604C135.027 39.4604 134.22 39.6571 133.543 40.0505C132.877 40.4316 132.329 40.9602 131.898 41.6364C131.479 42.3002 131.165 43.0748 130.956 43.9599C130.758 44.8327 130.659 45.7671 130.659 46.7629ZM152.705 40.9172V56.9053H149.268V36.9524H152.521L152.705 40.9172ZM152.003 46.1728L150.414 46.1175C150.427 44.7529 150.605 43.4927 150.95 42.3371C151.295 41.1692 151.806 40.1549 152.484 39.2944C153.162 38.4338 154.005 37.77 155.015 37.3028C156.025 36.8234 157.196 36.5836 158.526 36.5836C159.463 36.5836 160.326 36.7189 161.114 36.9893C161.903 37.2475 162.586 37.6594 163.165 38.2248C163.744 38.7904 164.194 39.5157 164.514 40.4008C164.834 41.286 164.994 42.3556 164.994 43.6096V56.9053H161.575V43.7755C161.575 42.7305 161.397 41.8946 161.04 41.2676C160.695 40.6406 160.202 40.1857 159.562 39.9029C158.921 39.6079 158.169 39.4604 157.307 39.4604C156.297 39.4604 155.453 39.6386 154.775 39.9951C154.098 40.3516 153.556 40.8434 153.149 41.4704C152.742 42.0974 152.447 42.8166 152.262 43.628C152.089 44.427 152.003 45.2754 152.003 46.1728ZM164.957 44.2919L162.666 44.9926C162.678 43.8985 162.857 42.8473 163.202 41.8393C163.559 40.8311 164.071 39.9337 164.736 39.1469C165.414 38.3601 166.245 37.7392 167.23 37.2844C168.216 36.8172 169.343 36.5836 170.612 36.5836C171.684 36.5836 172.633 36.725 173.458 37.0077C174.296 37.2905 174.998 37.7269 175.565 38.3171C176.144 38.8949 176.581 39.6386 176.877 40.5483C177.173 41.4581 177.32 42.54 177.32 43.7939V56.9053H173.883V43.7571C173.883 42.6383 173.704 41.7716 173.347 41.1569C173.003 40.5299 172.51 40.0935 171.869 39.8476C171.24 39.5895 170.489 39.4604 169.614 39.4604C168.863 39.4604 168.198 39.5895 167.619 39.8476C167.039 40.1058 166.553 40.4623 166.159 40.9172C165.764 41.3598 165.462 41.8699 165.254 42.4478C165.056 43.0256 164.957 43.6402 164.957 44.2919ZM194.285 53.4938V43.2223C194.285 42.4355 194.125 41.7532 193.804 41.1754C193.496 40.5852 193.028 40.1304 192.399 39.8107C191.771 39.4911 190.995 39.3313 190.071 39.3313C189.208 39.3313 188.451 39.4788 187.798 39.7739C187.158 40.0689 186.652 40.4562 186.283 40.9356C185.925 41.4151 185.747 41.9315 185.747 42.4847H182.328C182.328 41.7716 182.513 41.0647 182.883 40.364C183.252 39.6632 183.782 39.0301 184.471 38.4646C185.174 37.8867 186.012 37.4319 186.985 37.0999C187.971 36.7557 189.067 36.5836 190.274 36.5836C191.728 36.5836 193.01 36.8295 194.118 37.3213C195.239 37.813 196.114 38.5568 196.742 39.5526C197.383 40.5361 197.703 41.7716 197.703 43.2591V52.5533C197.703 53.2171 197.759 53.924 197.87 54.674C197.993 55.4239 198.172 56.0693 198.405 56.6102V56.9053H194.839C194.666 56.5119 194.531 55.9894 194.432 55.3378C194.333 54.674 194.285 54.0592 194.285 53.4938ZM194.876 44.8082L194.913 47.2055H191.457C190.484 47.2055 189.615 47.2853 188.851 47.4452C188.087 47.5928 187.447 47.8201 186.93 48.1275C186.412 48.4349 186.018 48.8221 185.747 49.2893C185.476 49.7441 185.34 50.2789 185.34 50.8936C185.34 51.5205 185.482 52.0922 185.765 52.6086C186.048 53.1249 186.474 53.5368 187.04 53.8441C187.62 54.1392 188.328 54.2867 189.166 54.2867C190.213 54.2867 191.137 54.0654 191.937 53.6228C192.738 53.1802 193.373 52.6393 193.841 52C194.322 51.3608 194.58 50.74 194.617 50.1375L196.077 51.7788C195.991 52.2951 195.757 52.8668 195.375 53.4938C194.993 54.1207 194.482 54.7232 193.841 55.3009C193.212 55.8665 192.461 56.3397 191.586 56.7208C190.724 57.0897 189.751 57.2741 188.667 57.2741C187.311 57.2741 186.122 57.0098 185.1 56.4811C184.09 55.9525 183.301 55.2456 182.734 54.3604C182.18 53.463 181.903 52.4611 181.903 51.3546C181.903 50.285 182.112 49.3446 182.532 48.5332C182.95 47.7095 183.554 47.0272 184.342 46.4863C185.131 45.9331 186.08 45.515 187.188 45.2323C188.297 44.9496 189.535 44.8082 190.903 44.8082H194.876Z" fill="#F8F8F8"/>
</g>
<defs>
<clipPath id="clip0_398_26">
<rect width="183.711" height="93.6296" fill="white" transform="translate(22 0.255432)"/>
</clipPath>
</defs>
</svg>
