<svg width="226" height="114" viewBox="0 0 226 114" fill="none" xmlns="http://www.w3.org/2000/svg">
<rect width="226" height="93" rx="10" fill="#2D2E32"/>
<path d="M6.695 100.241L6.4675 101.71H3.172V103.653C3.393 103.549 3.6205 103.476 3.8545 103.432C4.0885 103.389 4.30517 103.367 4.5045 103.367C4.96817 103.367 5.39067 103.484 5.772 103.718C6.15767 103.952 6.46317 104.288 6.6885 104.726C6.91817 105.164 7.033 105.686 7.033 106.292C7.033 106.899 6.8835 107.443 6.5845 107.924C6.28983 108.405 5.87817 108.784 5.3495 109.061C4.82083 109.335 4.20333 109.471 3.497 109.471C2.84267 109.471 2.26417 109.35 1.7615 109.107C1.25883 108.86 0.840667 108.533 0.507 108.125L1.69 107.046C1.90667 107.324 2.15583 107.536 2.4375 107.683C2.7235 107.826 3.0225 107.898 3.3345 107.898C3.81117 107.898 4.1925 107.753 4.4785 107.462C4.76883 107.172 4.914 106.793 4.914 106.325C4.914 105.952 4.862 105.653 4.758 105.428C4.65833 105.203 4.5175 105.04 4.3355 104.94C4.1535 104.836 3.94117 104.784 3.6985 104.784C3.53383 104.784 3.35833 104.806 3.172 104.849C2.98567 104.893 2.79283 104.971 2.5935 105.083H1.209V100.241H6.695ZM9.77092 110.706L8.16542 109.972L13.6319 98.629L15.2244 99.3635L9.77092 110.706ZM22.2848 100.241L22.0573 101.71H18.7618V103.653C18.9828 103.549 19.2103 103.476 19.4443 103.432C19.6783 103.389 19.895 103.367 20.0943 103.367C20.558 103.367 20.9805 103.484 21.3618 103.718C21.7475 103.952 22.053 104.288 22.2783 104.726C22.508 105.164 22.6228 105.686 22.6228 106.292C22.6228 106.899 22.4733 107.443 22.1743 107.924C21.8797 108.405 21.468 108.784 20.9393 109.061C20.4107 109.335 19.7932 109.471 19.0868 109.471C18.4325 109.471 17.854 109.35 17.3513 109.107C16.8487 108.86 16.4305 108.533 16.0968 108.125L17.2798 107.046C17.4965 107.324 17.7457 107.536 18.0273 107.683C18.3133 107.826 18.6123 107.898 18.9243 107.898C19.401 107.898 19.7823 107.753 20.0683 107.462C20.3587 107.172 20.5038 106.793 20.5038 106.325C20.5038 105.952 20.4518 105.653 20.3478 105.428C20.2482 105.203 20.1073 105.04 19.9253 104.94C19.7433 104.836 19.531 104.784 19.2883 104.784C19.1237 104.784 18.9482 104.806 18.7618 104.849C18.5755 104.893 18.3827 104.971 18.1833 105.083H16.7988V100.241H22.2848Z" fill="#F8F8F8" fill-opacity="0.5"/>
<g clip-path="url(#clip0_89_100)">
<path d="M118.221 80.6467L112.135 20.4766H179L172.908 80.637L145.527 87.3293L118.221 80.6467Z" fill="#74FAC0"/>
<path d="M167.693 76.8063L172.899 25.3964H145.568V82.214L167.693 76.8063Z" fill="#56DFA4"/>
<path d="M126.085 47.7125L126.835 55.092H145.568V47.7125H126.085Z" fill="#212121"/>
<path d="M125.339 40.1557H145.568V32.776H145.538H124.577L125.339 40.1557Z" fill="#212121"/>
<path d="M145.529 74.5654L145.568 74.5557V66.8782L145.531 66.8867L136.208 64.6675L135.612 58.7819H131.082H127.21L128.382 70.3687L145.529 74.5654Z" fill="#212121"/>
<path d="M127.872 4.125H138.01V7.86269H132.111V11.6004H138.01V15.338H127.872V4.125Z" fill="#F8F8F8"/>
<path d="M140.038 4.125H150.176V7.37517H144.277V8.0252H150.176V15.5006H140.038V12.0879H145.936V11.4379H140.038V4.125Z" fill="#F8F8F8"/>
<path d="M152.203 4.125H162.342V7.37517H156.444V8.0252H162.342V15.5006H152.203V12.0879H158.102V11.4379H152.203V4.125Z" fill="#F8F8F8"/>
<path d="M166.508 32.776H145.539V40.1557H157.334L156.572 47.7125H145.539V55.092H155.846L154.875 64.663L145.539 66.8844V74.562L162.699 70.3687L162.825 69.1224L164.792 49.6941L164.996 47.7125L166.508 32.776Z" fill="#212121"/>
<path d="M47.2883 20.3099H104.733L99.4993 75.8186L75.9767 81.994L52.5176 75.8272L47.2883 20.3099Z" fill="#74FAC0"/>
<path d="M95.0234 72.2858L99.4955 24.8503H76.031V77.2747L95.0234 72.2858Z" fill="#56DFA4"/>
<path d="M66.4985 45.4408L65.8413 38.4678H76.0311V31.6599H58.001L59.9402 52.2505H76.0311V45.4426L66.4985 45.4408ZM60.2416 55.6562L61.2493 66.3493L75.9802 70.2211L76.0129 70.2126V63.1294L75.982 63.1379L67.9929 61.075L67.4808 55.6424H63.5897L60.2416 55.6562Z" fill="#212121"/>
<path d="M92.5286 47.2666L92.7048 45.4374H75.9893V52.2453H84.8445L84.0093 61.0767L75.9893 63.126V70.2091L90.7329 66.3407L90.8418 65.189L92.5286 47.2666ZM76.0056 38.4678H93.3766L94.0211 31.6427H76.0056V38.4335V38.4678Z" fill="#212121"/>
<path d="M47.2415 5.2467H51.7426V9.2089H55.8591V5.2467H60.3602V17.2459H55.8591V13.2345H51.7426V17.2459H47.2415V5.2467ZM66.278 9.2265H62.3083V5.24741H74.7345V9.2265H70.7704V17.2473H66.2693V9.2265H66.278ZM76.7071 5.2467H81.4001L84.2871 9.46929L87.171 5.2467H91.8577V17.2459H87.3755V11.2977L84.28 15.5646H84.2026L81.1182 11.2984V17.2466H76.715L76.7071 5.2467ZM94.1034 5.2467H98.6046V13.2872H104.934V17.2536H94.1043L94.1034 5.2467Z" fill="#F8F8F8"/>
<path d="M143.262 49.1465H78.1267V110.125H143.262V49.1465Z" fill="#74FAC0"/>
<path d="M121.881 96.7861C123.193 98.7915 124.9 100.266 127.919 100.266C130.455 100.266 132.075 99.0793 132.075 97.4397C132.075 95.4747 130.411 94.7789 127.619 93.6357L126.089 93.0208C121.672 91.2593 118.738 89.0526 118.738 84.3869C118.738 80.0899 122.236 76.8182 127.702 76.8182C131.593 76.8182 134.391 78.0862 136.407 81.4058L131.641 84.2712C130.592 82.5097 129.46 81.8156 127.702 81.8156C125.909 81.8156 124.773 82.8801 124.773 84.2712C124.773 85.99 125.91 86.6859 128.536 87.7504L130.067 88.3642C135.267 90.4523 138.203 92.5808 138.203 97.3662C138.203 102.525 133.874 105.351 128.061 105.351C122.377 105.351 118.704 102.816 116.907 99.4914L121.881 96.7861ZM100.259 97.2824C101.221 98.8799 102.095 100.23 104.198 100.23C106.209 100.23 107.478 99.4936 107.478 96.6293V77.1453H113.598V96.7069C113.598 102.64 109.883 105.341 104.459 105.341C99.5582 105.341 96.7202 102.967 95.2769 100.107L100.259 97.2824Z" fill="#212121"/>
</g>
<defs>
<clipPath id="clip0_89_100">
<rect width="132" height="106" fill="white" transform="translate(47 4.125)"/>
</clipPath>
</defs>
</svg>
