<svg width="100" height="100" viewBox="0 0 100 100" fill="none" xmlns="http://www.w3.org/2000/svg">
<circle cx="50" cy="50" r="49" fill="#FFE240" fill-opacity="0.15" stroke="#FFE240" stroke-width="2"/>
<path d="M67.0001 38.6667H44.3334V33.0001H67.0001V38.6667ZM78.3334 27.3334V50.0001L61.3334 67.0001H38.6667C37.1639 67.0001 35.7225 66.4031 34.6598 65.3404C33.5971 64.2776 33.0001 62.8363 33.0001 61.3334V27.3334C33.0001 25.8305 33.5971 24.3892 34.6598 23.3265C35.7225 22.2638 37.1639 21.6667 38.6667 21.6667H72.6667C74.1696 21.6667 75.611 22.2638 76.6737 23.3265C77.7364 24.3892 78.3334 25.8305 78.3334 27.3334ZM72.6667 27.3334H38.6667V61.3334H55.6667V50.0001C55.6667 48.4972 56.2638 47.0558 57.3265 45.9931C58.3892 44.9304 59.8305 44.3334 61.3334 44.3334H72.6667V27.3334ZM27.3334 33.0001C25.8305 33.0001 24.3892 33.5971 23.3265 34.6598C22.2638 35.7225 21.6667 37.1639 21.6667 38.6667V72.6667C21.6667 75.7834 24.2167 78.3334 27.3334 78.3334H61.3334C62.8363 78.3334 64.2776 77.7364 65.3404 76.6737C66.4031 75.611 67.0001 74.1696 67.0001 72.6667H27.3334V33.0001Z" fill="#FFE240"/>
</svg>
