<svg width="227" height="114" viewBox="0 0 227 114" fill="none" xmlns="http://www.w3.org/2000/svg">
<path d="M3.536 101.9C4.186 101.9 4.7385 102.006 5.1935 102.218C5.65283 102.426 6.00167 102.706 6.24 103.057C6.48267 103.404 6.604 103.787 6.604 104.207C6.604 104.589 6.52817 104.922 6.3765 105.208C6.22483 105.49 6.01033 105.726 5.733 105.917C5.46 106.108 5.13717 106.257 4.7645 106.365C5.1805 106.422 5.54667 106.534 5.863 106.703C6.18367 106.868 6.435 107.104 6.617 107.412C6.799 107.72 6.89 108.116 6.89 108.601C6.89 109.108 6.74917 109.57 6.4675 109.986C6.19017 110.402 5.7915 110.736 5.2715 110.987C4.7515 111.234 4.12967 111.357 3.406 111.357C2.73433 111.357 2.132 111.24 1.599 111.006C1.066 110.768 0.611 110.434 0.234 110.005L1.391 108.926C1.651 109.225 1.93917 109.444 2.2555 109.583C2.57617 109.717 2.91417 109.784 3.2695 109.784C3.71583 109.784 4.07983 109.672 4.3615 109.446C4.64317 109.217 4.784 108.887 4.784 108.458C4.784 108.138 4.72333 107.88 4.602 107.685C4.485 107.486 4.31167 107.34 4.082 107.249C3.85667 107.158 3.5815 107.113 3.2565 107.113H2.4375L2.6715 105.696H3.2565C3.52083 105.696 3.75483 105.653 3.9585 105.566C4.16217 105.479 4.3225 105.349 4.4395 105.176C4.5565 104.998 4.615 104.779 4.615 104.519C4.615 104.181 4.49367 103.915 4.251 103.72C4.00833 103.525 3.69417 103.427 3.3085 103.427C2.94883 103.427 2.62167 103.497 2.327 103.635C2.03667 103.774 1.76367 103.965 1.508 104.207L0.455 103.115C0.866667 102.717 1.32817 102.416 1.8395 102.212C2.35083 102.004 2.91633 101.9 3.536 101.9ZM9.77092 112.592L8.16542 111.858L13.6319 100.515L15.2244 101.25L9.77092 112.592ZM22.2848 102.127L22.0573 103.596H18.7618V105.54C18.9828 105.436 19.2103 105.362 19.4443 105.319C19.6783 105.276 19.895 105.254 20.0943 105.254C20.558 105.254 20.9805 105.371 21.3618 105.605C21.7475 105.839 22.053 106.175 22.2783 106.612C22.508 107.05 22.6228 107.572 22.6228 108.179C22.6228 108.786 22.4733 109.329 22.1743 109.81C21.8797 110.291 21.468 110.671 20.9393 110.948C20.4107 111.221 19.7932 111.357 19.0868 111.357C18.4325 111.357 17.854 111.236 17.3513 110.993C16.8487 110.746 16.4305 110.419 16.0968 110.012L17.2798 108.933C17.4965 109.21 17.7457 109.423 18.0273 109.57C18.3133 109.713 18.6123 109.784 18.9243 109.784C19.401 109.784 19.7823 109.639 20.0683 109.349C20.3587 109.059 20.5038 108.679 20.5038 108.211C20.5038 107.839 20.4518 107.54 20.3478 107.314C20.2482 107.089 20.1073 106.927 19.9253 106.827C19.7433 106.723 19.531 106.671 19.2883 106.671C19.1237 106.671 18.9482 106.693 18.7618 106.736C18.5755 106.779 18.3827 106.857 18.1833 106.97H16.7988V102.127H22.2848Z" fill="#F8F8F8" fill-opacity="0.5"/>
<rect x="0.012207" y="0.125" width="226.988" height="94.2127" rx="10" fill="#2D2E32"/>
<g filter="url(#filter0_i_398_24)">
<path d="M45.3719 11.3441L47.0779 14.5977C47.4493 15.1845 47.8816 15.7294 48.3676 16.2228C49.7966 17.6719 51.1567 19.1907 52.3744 20.8174C55.2668 24.6693 57.2185 28.9466 58.613 33.5777C59.4488 36.4059 59.9026 39.304 59.9371 42.2369C60.078 51.0025 57.1136 58.5301 51.1191 64.7864C50.1478 65.778 49.0988 66.6884 47.9826 67.5082C47.3878 67.5082 47.1108 67.0321 46.8666 66.6242C46.3971 65.8306 46.1341 64.9626 45.9948 64.0801C45.7851 63.0199 45.6458 61.9597 45.7162 60.8631V60.3679C45.6818 60.2615 45.159 11.5933 45.3672 11.3457L45.3719 11.3441Z" fill="#74FAC0"/>
</g>
<g filter="url(#filter1_i_398_24)">
<path d="M45.3721 11.2393C45.3016 11.0964 45.2312 11.2043 45.1623 11.2742C45.1968 11.9804 44.9526 12.6168 44.5676 13.2184C44.1497 13.8215 43.591 14.2785 43.0338 14.7737C39.9317 17.4956 37.4932 20.7825 35.5399 24.4582C32.9605 29.4067 31.602 34.7076 31.2201 40.2926C31.0479 42.3083 31.8461 49.4121 32.4753 51.461C34.1813 56.9047 37.249 61.4629 41.2402 65.4211C42.2168 66.3733 43.2623 67.2589 44.3423 68.1064C44.6552 68.1064 44.6913 67.824 44.7601 67.6112C44.8975 67.1598 45.0021 66.6989 45.0731 66.2321C45.3862 64.4657 45.5615 62.6976 45.7697 60.9312L45.3862 11.2393H45.3721Z" fill="#27EC97"/>
</g>
<g filter="url(#filter2_i_398_24)">
<path d="M47.0829 69.6633C47.1533 68.8508 47.5525 68.1794 47.9547 67.5081C47.5368 67.3335 47.2222 66.978 46.9781 66.5876C46.7683 66.2336 46.5946 65.794 46.4553 65.421C45.967 63.9371 45.8606 62.3817 45.7228 60.8613V59.9408C45.5506 60.0836 45.5131 61.2835 45.5131 61.4613C45.4082 63.0864 45.2 64.6783 44.8871 66.2321C44.7822 66.8668 44.7149 67.5049 44.3298 68.0699C44.3298 68.1414 44.3298 68.2128 44.3643 68.3175C44.9903 70.1902 45.1657 72.0995 45.272 74.0437V74.75C45.272 75.5975 45.2376 75.4214 45.9341 75.7023C46.2127 75.8085 46.5289 75.8451 46.8059 76.0561C47.0156 76.0561 47.0501 75.8816 47.0501 75.7387L46.9452 74.5722V71.3186C46.9108 70.7537 47.0156 70.1871 47.086 69.657L47.0829 69.6633Z" fill="#74FAC0"/>
</g>
<g filter="url(#filter3_i_398_24)">
<path d="M73.5506 54.8818V58.2478C73.5469 58.381 73.5545 58.5144 73.573 58.6464C73.6162 59.045 73.8576 59.2882 74.2123 59.4C74.5434 59.4884 74.8797 59.555 75.2192 59.5994C75.4158 59.6221 75.4813 59.7095 75.5036 59.9235C75.526 60.6771 75.4606 60.7662 74.7397 60.7208C73.0584 60.6317 71.3755 60.6106 69.6943 60.7208H69.5344C69.0102 60.7435 68.967 60.6981 68.967 60.1666C68.967 60.0774 68.9894 59.9672 68.9894 59.8781C68.9894 59.716 69.0981 59.635 69.2515 59.635C69.6031 59.5913 69.9292 59.5021 70.2584 59.4357C70.717 59.3255 70.9775 59.0369 71.0223 58.5719C71.0862 58.063 71.0862 57.5315 71.0862 57.0209L71.1086 51.0862C71.1159 50.9141 71.0746 50.7434 70.9897 50.5942C70.9047 50.445 70.7797 50.3233 70.6291 50.2435C70.2339 50.0209 69.8159 49.8426 69.3826 49.7119C69.2515 49.6682 69.1205 49.6471 69.0118 49.579C68.6921 49.4235 68.6842 49.1366 68.9894 48.9583C69.0981 48.8935 69.2291 48.8481 69.3602 48.8254C70.6857 48.6271 71.9879 48.2932 73.247 47.8288C73.5092 47.7396 73.5747 47.7639 73.5987 48.0281C73.6211 48.1901 73.5987 48.3846 73.5763 48.537C73.5331 48.8254 73.5331 49.1123 73.5331 49.3797C73.5331 49.4899 73.5555 49.6017 73.6641 49.6682C73.7728 49.7346 73.8831 49.6682 73.9838 49.6033C74.4425 49.2468 74.9011 48.9162 75.403 48.631C76.1222 48.2323 76.8894 47.8774 77.7204 47.7672C78.7273 47.6343 79.5983 47.9001 80.3638 48.5646C80.6804 48.8518 80.9592 49.1792 81.1933 49.5385C81.4123 49.8627 81.433 49.8708 81.7175 49.6487C82.5486 49.028 83.4212 48.4754 84.361 48.0768C85.3439 47.6553 86.3491 47.5905 87.3528 47.9439C88.3789 48.3198 89.0788 49.0507 89.4944 50.0474C89.846 50.8447 89.9962 51.668 89.9962 52.527V58.4616C89.9962 58.8604 90.156 59.1099 90.5428 59.3044C90.9584 59.4665 91.417 59.5475 91.8534 59.6367C92.1378 59.7014 92.1378 59.7014 92.1378 59.9932C92.0946 60.7224 92.0292 60.7678 91.3291 60.7224C89.5762 60.6228 87.8191 60.6228 86.0662 60.7224C85.7147 60.7451 85.7147 60.7451 85.6955 60.3902V60.28C85.6731 59.6803 85.6731 59.6804 86.2421 59.5508L86.8094 59.3952C87.0016 59.3493 87.173 59.2391 87.296 59.0824C87.4189 58.9257 87.4862 58.7316 87.4871 58.5313L87.551 56.8703L87.5078 52.5302C87.4911 52.1427 87.4101 51.7608 87.2681 51.4007C86.7215 50.0491 85.5212 49.5628 84.3626 49.6957C83.4883 49.7849 82.7244 50.1382 82.0036 50.6487C81.8502 50.7589 81.7415 50.8917 81.7639 51.1138C81.9604 52.5318 81.8278 53.9499 81.8518 55.3663V58.4454C81.8518 58.9997 82.0707 59.2655 82.5949 59.3984L83.6018 59.6205C83.7553 59.6431 83.8415 59.7095 83.8415 59.8862V60.0483C83.8191 60.669 83.7776 60.6965 83.1639 60.69C81.4171 60.6009 79.6687 60.6252 77.9442 60.69C77.3528 60.7127 77.3049 60.6463 77.332 60.0418C77.3544 59.6852 77.396 59.6658 77.7252 59.5994L78.4444 59.4665C79.0837 59.3336 79.3186 59.0904 79.3617 58.4033L79.4257 56.9189L79.3825 52.467C79.3394 51.9127 79.2227 51.3812 78.9238 50.8723C78.4875 50.0523 77.8051 49.6325 76.8702 49.5871C75.9304 49.5223 75.101 49.8756 74.3131 50.3164C73.7665 50.6406 73.5267 51.0246 73.5698 51.668V54.9011L73.5506 54.8818ZM114.7 55.0162V58.1392C114.703 58.3612 114.718 58.583 114.743 58.8036C114.752 58.9506 114.808 59.0907 114.903 59.2026C114.997 59.3145 115.125 59.3923 115.267 59.4243C115.644 59.5357 116.032 59.6026 116.424 59.6237C116.643 59.6464 116.686 59.7338 116.709 59.9121V60.0677C116.686 60.8424 116.6 60.9315 115.857 60.8878C114.195 60.7776 112.537 60.7986 110.877 60.8878L110.237 60.9105C110.106 60.9105 110.078 60.8456 110.041 60.7549C109.977 60.4481 109.977 60.1313 110.041 59.8246C110.063 59.6917 110.15 59.6626 110.281 59.6253C110.6 59.5816 110.872 59.5151 111.176 59.4632C111.722 59.3303 111.919 59.1066 111.94 58.533L112.004 56.6725V51.224C112.004 50.8253 111.85 50.5822 111.502 50.4039C111.109 50.1819 110.693 50.028 110.255 49.8724C110.124 49.8286 109.993 49.7832 109.884 49.7168C109.6 49.5174 109.565 49.2306 109.841 49.0086C109.965 48.9052 110.117 48.843 110.277 48.8303C111.676 48.6083 113.03 48.2987 114.34 47.7672C114.494 47.7024 114.559 47.7445 114.625 47.8774C114.69 48.0103 114.712 48.1658 114.689 48.3198L114.625 49.3603C114.625 49.4931 114.561 49.6844 114.668 49.7362C114.799 49.8254 114.887 49.626 114.995 49.5741C115.64 49.0256 116.353 48.5642 117.115 48.2015C117.792 47.8774 118.489 47.6699 119.277 47.7153C120.741 47.8045 121.789 48.5581 122.465 49.8643C122.817 50.5514 122.967 51.3034 123.033 52.0797L123.097 53.7003L123.119 58.5946C123.141 58.9706 123.273 59.2152 123.643 59.3482C124.028 59.478 124.422 59.5746 124.823 59.6367C125.174 59.6803 125.194 59.7468 125.216 60.0791V60.1893C125.173 60.9429 125.128 60.9639 124.385 60.9186C122.755 60.8299 121.122 60.8299 119.493 60.9186C119.274 60.9413 119.056 60.9186 118.853 60.9413C118.722 60.9413 118.635 60.9186 118.614 60.7857C118.571 60.4971 118.526 60.2103 118.591 59.8991C118.614 59.7662 118.679 59.6998 118.831 59.6772L119.838 59.5151C120.189 59.426 120.385 59.1909 120.429 58.8669L120.472 58.2462L120.45 53.6176C120.45 53.086 120.428 52.5545 120.319 52.023C120.057 50.8885 119.205 50.0782 118.05 49.9648C117.043 49.8546 116.132 50.1204 115.297 50.673C114.882 50.9387 114.706 51.3148 114.706 51.7798V55.1248C114.706 55.06 114.706 55.06 114.728 55.06L114.7 55.0162Z" fill="#74FAC0"/>
<path d="M178.67 48.7477C178.43 47.1302 177.838 45.6911 176.813 44.4287C175.919 43.3134 174.761 42.4449 173.448 41.9038C172.074 41.3285 170.608 41.1502 169.123 41.1064C168.511 41.0837 160.168 41.2166 159.557 41.1064C159.403 41.0837 159.294 41.1291 159.205 41.262C159.096 41.4241 158.986 41.5942 158.921 41.7709C158.659 42.3705 158.659 42.3251 159.291 42.4126C159.816 42.5018 160.317 42.5455 160.821 42.7011C161.279 42.8566 161.606 43.1225 161.716 43.6313C161.759 43.8744 161.803 51.6696 161.803 55.303L161.716 57.896C161.693 58.0954 161.673 58.2948 161.606 58.4713C161.519 58.7371 161.367 58.9576 161.105 59.0709C160.817 59.2086 160.506 59.291 160.187 59.3141C159.597 59.3789 159.51 59.4032 159.313 60.0677L159.249 60.3108C159.206 60.5992 159.227 60.643 159.511 60.643L166.042 60.7078L168.599 60.664L170.369 60.442C172.377 60.0661 174.169 59.2233 175.697 57.8733C176.57 57.0917 177.282 56.1435 177.794 55.0826C178.406 53.8429 178.668 52.4896 178.733 51.1186C178.842 50.3439 178.797 49.5467 178.67 48.7493V48.7477ZM175.502 51.8916C175.413 53.3097 175.131 54.6824 174.41 55.9221C173.493 57.5395 172.182 58.6691 170.37 59.0661C169.583 59.2282 168.798 59.3092 167.972 59.199C167.382 59.1342 166.815 59.0662 166.269 58.8668C165.286 58.5102 164.936 57.8944 164.915 56.9221L164.893 43.5681C164.893 42.7708 165.244 42.5958 165.81 42.5715C166.662 42.5066 167.536 42.5277 168.388 42.6152C169.295 42.7042 170.185 42.9224 171.031 43.2635C171.66 43.5293 172.244 43.8959 172.758 44.3493C173.937 45.3703 174.723 46.6506 175.155 48.1578C175.507 49.3765 175.57 50.6162 175.507 51.856L175.502 51.8916ZM196.822 54.0633C196.822 53.9304 196.822 53.8202 196.8 53.6872C196.603 52.4686 195.968 51.5384 194.987 50.8302C194.354 50.365 193.634 50.0555 192.891 49.8334C192.759 49.7897 192.651 49.7443 192.52 49.7232C192.542 49.613 192.607 49.5903 192.673 49.5677C193.11 49.3457 193.524 49.1025 193.896 48.7704C194.573 48.1951 195.014 47.4852 195.249 46.6214C195.38 46.1563 195.38 45.6911 195.337 45.2033C195.301 44.6327 195.139 44.0776 194.863 43.5789C194.587 43.0804 194.204 42.6513 193.742 42.3235C192.735 41.5699 191.558 41.2604 190.334 41.2377C187.976 41.1939 185.596 41.2377 183.239 41.2377C182.561 41.2377 181.885 41.2815 181.185 41.1729C181.054 41.1502 180.865 41.108 180.77 41.262C180.609 41.5504 180.418 41.8373 180.354 42.1695C180.332 42.3251 180.376 42.4126 180.551 42.4353L182.057 42.6574C182.649 42.7465 183.065 43.0787 183.106 43.6102C183.149 43.9777 183.17 44.3472 183.17 44.7172L183.127 48.8579L183.104 57.0517C183.104 57.5379 183.041 58.0046 182.951 58.4908C182.929 58.6452 182.865 58.7899 182.763 58.9078C182.663 59.0257 182.531 59.1116 182.384 59.1552C181.947 59.2881 181.532 59.4211 181.073 59.4211C180.951 59.4093 180.828 59.44 180.725 59.5084C180.621 59.5767 180.544 59.6785 180.506 59.797C180.418 59.9964 180.346 60.2184 180.309 60.4178C180.266 60.6835 180.332 60.7743 180.594 60.7419C180.79 60.7192 187.998 60.8975 189.352 60.7645C190.161 60.6754 190.95 60.5652 191.754 60.3222C193.129 59.8797 194.397 59.2363 195.401 58.1505C196.232 57.264 196.711 56.2009 196.754 54.9611C196.819 54.6726 196.819 54.3857 196.819 54.0746L196.822 54.0633ZM186.229 44.9878L186.293 43.2165C186.293 42.8842 186.423 42.7303 186.752 42.6622C187.276 42.552 187.8 42.5974 188.324 42.6185C188.848 42.6622 189.35 42.7287 189.874 42.8842C190.834 43.1727 191.578 43.7269 192.016 44.6556C192.215 45.0778 192.319 45.5394 192.321 46.0072C192.343 46.6279 192.299 47.2259 192.059 47.8223C191.688 48.6423 191.1 49.1739 190.247 49.3295C189.393 49.4851 186.971 49.4186 186.599 49.4186C186.272 49.4186 186.248 49.3748 186.248 49.0426V46.9568C186.196 46.3083 186.189 45.6569 186.226 45.0072L186.229 44.9878ZM193.324 56.9026C192.954 57.8993 192.277 58.588 191.316 58.9608C190.791 59.1601 190.267 59.2849 189.718 59.2492C189.04 59.2265 188.364 59.2492 187.688 59.1163C186.771 58.9171 186.355 58.0306 186.29 57.3888C186.181 56.2593 186.247 55.1069 186.226 54.2659V51.3423C186.226 50.9857 186.269 50.8772 186.641 50.8772L188.695 50.8999L190.093 51.0619C191.077 51.2839 191.972 51.6615 192.672 52.4345C193.239 53.0552 193.545 53.8072 193.611 54.6272C193.675 55.4019 193.634 56.1555 193.349 56.8864L193.324 56.9026Z" fill="#74FAC0"/>
<path d="M137.83 50.2305L138.398 50.3197C139.01 50.3424 139.73 50.1203 139.948 49.2565C140.068 48.844 140.068 48.405 139.948 47.9924C139.817 47.9924 139.751 48.1026 139.686 48.148C139.359 48.4138 138.987 48.5693 138.594 48.6131C137.808 48.7022 137.022 48.6569 136.258 48.3701L135.187 47.994C134.44 47.746 133.654 47.6416 132.869 47.6862C131.756 47.7753 130.707 48.1513 129.725 48.6828C128.676 49.2581 127.934 50.1219 127.582 51.2968C127.386 51.984 127.364 52.6906 127.452 53.4004C127.671 55.0178 128.5 56.1474 129.985 56.7454C130.072 56.7681 130.139 56.8102 130.225 56.8345C130.421 56.9447 130.444 57.0566 130.268 57.2106L129.721 57.5865L128.411 58.4066C128.083 58.6059 128.039 58.763 128.149 59.1148C128.278 59.5285 128.521 59.8968 128.847 60.1778C129.146 60.4387 129.486 60.6483 129.852 60.7985C130.092 60.9088 130.092 60.9606 129.874 61.1551L128.628 62.0627C128.212 62.3868 127.796 62.711 127.448 63.1258C127.206 63.3887 127.032 63.7082 126.94 64.0559C126.849 64.4036 126.843 64.7688 126.924 65.1192C127.087 65.8879 127.484 66.5854 128.059 67.1125C128.627 67.6458 129.318 68.0264 130.068 68.2195C131.291 68.5759 132.558 68.5954 133.803 68.3523C135.593 68.0201 137.159 67.2179 138.389 65.8501C139.241 64.9425 139.743 63.8794 139.789 62.6088C139.836 61.874 139.625 61.1458 139.193 60.5539C138.761 59.9619 138.136 59.5444 137.429 59.3757L136.25 59.1537L132.645 58.8295C132.253 58.8068 131.859 58.7404 131.532 58.5411C131.117 58.2753 131.007 57.7664 131.269 57.4341C131.466 57.1911 131.706 57.0355 132.013 57.0128L132.712 56.948C134.093 56.8055 135.389 56.2064 136.402 55.2431C136.942 54.7357 137.329 54.0824 137.516 53.3599C137.778 52.407 137.778 51.4152 137.559 50.4428C137.495 50.1997 137.516 50.177 137.821 50.2208L137.83 50.2305ZM132.477 61.2621C132.607 61.2848 132.739 61.2621 132.869 61.2621C133.786 61.3059 134.727 61.3723 135.621 61.6186C135.914 61.7062 136.199 61.8173 136.473 61.9509C137.348 62.437 137.675 63.2798 137.565 64.1874C137.434 65.184 136.888 65.8922 136.035 66.3589C135.468 66.6831 134.834 66.8241 134.178 66.8906C133.939 66.9132 133.72 66.8906 133.48 66.8906C132.716 66.9132 131.973 66.8257 131.252 66.5145C130.75 66.3151 130.334 66.0284 129.964 65.628C129.2 64.8534 128.845 63.4354 129.986 62.283C130.685 61.6348 131.472 61.1762 132.477 61.2621ZM134.967 54.3518C134.508 55.5251 133.502 55.88 132.499 55.7244C131.582 55.5915 130.904 55.0827 130.469 54.2399C129.902 53.1104 129.75 51.9387 130.076 50.7183C130.315 49.8108 130.863 49.1237 131.823 48.9681C133.045 48.746 134.22 49.1901 134.837 50.4299C135.156 51.0295 135.296 51.7588 135.296 52.7992C135.273 53.2206 135.187 53.7959 134.968 54.3501L134.967 54.3518ZM107.449 52.8446C107.252 51.6486 106.816 50.5628 106.007 49.6552C104.805 48.3036 103.277 47.7105 101.551 47.7056C100.044 47.6829 98.6263 48.1269 97.3574 48.9243C96.1099 49.6813 95.1955 50.8939 94.8019 52.313C94.4311 53.5982 94.4503 54.906 94.7379 56.2106C95.5019 59.7111 98.1678 61.2151 101.355 60.9947C102.294 60.9298 103.189 60.6187 104.04 60.1973C105.307 59.5977 106.224 58.6464 106.857 57.384C107.359 56.3435 107.576 55.235 107.556 53.9726L107.447 52.8429L107.449 52.8446ZM104.348 57.7615C104.192 58.2599 103.896 58.7012 103.496 59.0316C103.097 59.362 102.61 59.5672 102.098 59.622C101.139 59.7549 100.241 59.5118 99.4335 58.9349C98.8508 58.5003 98.3791 57.9307 98.0575 57.2738C97.1625 55.4132 97.009 53.4652 97.4661 51.4719C97.6132 50.855 97.9316 50.2937 98.3835 49.8546C99.1922 49.101 100.13 48.9243 101.18 49.1464C102.187 49.3683 102.95 49.9209 103.578 50.7637C104.206 51.6064 104.495 52.5788 104.669 53.5998C104.757 54.1086 104.757 54.6403 104.778 54.9725C104.778 56.0356 104.69 56.9172 104.362 57.7632L104.348 57.7615ZM155.171 53.0229C155.011 51.7377 154.538 50.5644 153.642 49.5904C152.462 48.2842 150.932 47.7299 149.231 47.7072C147.766 47.6845 146.412 48.1059 145.168 48.8368C143.769 49.6795 142.809 50.8739 142.438 52.4913C141.995 54.2558 142.181 56.1222 142.962 57.7615C143.682 59.3125 144.906 60.3091 146.523 60.7516C148.313 61.2378 150.018 61.0174 151.677 60.1973C153.119 59.4891 154.145 58.3822 154.735 56.875C155.086 55.9886 155.214 55.0373 155.237 53.9288C155.259 53.7295 155.214 53.3745 155.173 53.0212L155.171 53.0229ZM152.156 57.4747C151.805 58.6708 151.066 59.4453 149.82 59.6236C148.903 59.7565 148.03 59.5345 147.242 59.0029C146.565 58.5378 146.085 57.9172 145.735 57.1879C145.342 56.4132 145.123 55.5931 145.036 54.752C144.906 53.7116 144.906 52.6938 145.146 51.6518C145.191 51.4464 145.257 51.246 145.342 51.0538C145.954 49.5028 147.307 48.7946 148.903 49.1496C149.974 49.3926 150.78 49.9922 151.393 50.8998C151.984 51.7863 152.267 52.7603 152.399 53.817C152.464 54.2383 152.488 54.6807 152.464 55.0567C152.464 55.9206 152.399 56.7179 152.144 57.4925L152.156 57.4747Z" fill="#74FAC0"/>
</g>
<defs>
<filter id="filter0_i_398_24" x="45.3184" y="11.3441" width="14.6235" height="60.1641" filterUnits="userSpaceOnUse" color-interpolation-filters="sRGB">
<feFlood flood-opacity="0" result="BackgroundImageFix"/>
<feBlend mode="normal" in="SourceGraphic" in2="BackgroundImageFix" result="shape"/>
<feColorMatrix in="SourceAlpha" type="matrix" values="0 0 0 0 0 0 0 0 0 0 0 0 0 0 0 0 0 0 127 0" result="hardAlpha"/>
<feOffset dy="4"/>
<feGaussianBlur stdDeviation="2"/>
<feComposite in2="hardAlpha" operator="arithmetic" k2="-1" k3="1"/>
<feColorMatrix type="matrix" values="0 0 0 0 0 0 0 0 0 0 0 0 0 0 0 0 0 0 0.25 0"/>
<feBlend mode="normal" in2="shape" result="effect1_innerShadow_398_24"/>
</filter>
<filter id="filter1_i_398_24" x="31.1963" y="11.169" width="14.5735" height="60.9374" filterUnits="userSpaceOnUse" color-interpolation-filters="sRGB">
<feFlood flood-opacity="0" result="BackgroundImageFix"/>
<feBlend mode="normal" in="SourceGraphic" in2="BackgroundImageFix" result="shape"/>
<feColorMatrix in="SourceAlpha" type="matrix" values="0 0 0 0 0 0 0 0 0 0 0 0 0 0 0 0 0 0 127 0" result="hardAlpha"/>
<feOffset dy="4"/>
<feGaussianBlur stdDeviation="2"/>
<feComposite in2="hardAlpha" operator="arithmetic" k2="-1" k3="1"/>
<feColorMatrix type="matrix" values="0 0 0 0 0 0 0 0 0 0 0 0 0 0 0 0 0 0 0.25 0"/>
<feBlend mode="normal" in2="shape" result="effect1_innerShadow_398_24"/>
</filter>
<filter id="filter2_i_398_24" x="44.3298" y="59.9408" width="3.62476" height="20.1154" filterUnits="userSpaceOnUse" color-interpolation-filters="sRGB">
<feFlood flood-opacity="0" result="BackgroundImageFix"/>
<feBlend mode="normal" in="SourceGraphic" in2="BackgroundImageFix" result="shape"/>
<feColorMatrix in="SourceAlpha" type="matrix" values="0 0 0 0 0 0 0 0 0 0 0 0 0 0 0 0 0 0 127 0" result="hardAlpha"/>
<feOffset dy="4"/>
<feGaussianBlur stdDeviation="2"/>
<feComposite in2="hardAlpha" operator="arithmetic" k2="-1" k3="1"/>
<feColorMatrix type="matrix" values="0 0 0 0 0 0 0 0 0 0 0 0 0 0 0 0 0 0 0.25 0"/>
<feBlend mode="normal" in2="shape" result="effect1_innerShadow_398_24"/>
</filter>
<filter id="filter3_i_398_24" x="68.7661" y="41.1008" width="128.056" height="31.4136" filterUnits="userSpaceOnUse" color-interpolation-filters="sRGB">
<feFlood flood-opacity="0" result="BackgroundImageFix"/>
<feBlend mode="normal" in="SourceGraphic" in2="BackgroundImageFix" result="shape"/>
<feColorMatrix in="SourceAlpha" type="matrix" values="0 0 0 0 0 0 0 0 0 0 0 0 0 0 0 0 0 0 127 0" result="hardAlpha"/>
<feOffset dy="4"/>
<feGaussianBlur stdDeviation="2"/>
<feComposite in2="hardAlpha" operator="arithmetic" k2="-1" k3="1"/>
<feColorMatrix type="matrix" values="0 0 0 0 0 0 0 0 0 0 0 0 0 0 0 0 0 0 0.25 0"/>
<feBlend mode="normal" in2="shape" result="effect1_innerShadow_398_24"/>
</filter>
</defs>
</svg>
