<svg width="227" height="114" viewBox="0 0 227 114" fill="none" xmlns="http://www.w3.org/2000/svg">
<path d="M4.63903 102.096C5.28903 102.096 5.84153 102.202 6.29653 102.415C6.75586 102.623 7.10469 102.902 7.34303 103.253C7.58569 103.6 7.70703 103.983 7.70703 104.404C7.70703 104.785 7.63119 105.119 7.47953 105.405C7.32786 105.686 7.11336 105.922 6.83603 106.113C6.56303 106.304 6.24019 106.453 5.86753 106.562C6.28353 106.618 6.64969 106.731 6.96603 106.9C7.28669 107.064 7.53803 107.3 7.72003 107.608C7.90203 107.916 7.99303 108.312 7.99303 108.798C7.99303 109.305 7.85219 109.766 7.57053 110.182C7.29319 110.598 6.89453 110.932 6.37453 111.183C5.85453 111.43 5.23269 111.554 4.50903 111.554C3.83736 111.554 3.23503 111.437 2.70203 111.203C2.16903 110.964 1.71403 110.631 1.33703 110.202L2.49403 109.123C2.75403 109.422 3.04219 109.64 3.35853 109.779C3.67919 109.913 4.01719 109.981 4.37253 109.981C4.81886 109.981 5.18286 109.868 5.46453 109.643C5.74619 109.413 5.88703 109.084 5.88703 108.655C5.88703 108.334 5.82636 108.076 5.70503 107.881C5.58803 107.682 5.41469 107.537 5.18503 107.446C4.95969 107.355 4.68453 107.309 4.35953 107.309H3.54053L3.77453 105.892H4.35953C4.62386 105.892 4.85786 105.849 5.06153 105.762C5.26519 105.675 5.42553 105.545 5.54253 105.372C5.65953 105.194 5.71803 104.976 5.71803 104.716C5.71803 104.378 5.59669 104.111 5.35403 103.916C5.11136 103.721 4.79719 103.624 4.41153 103.624C4.05186 103.624 3.72469 103.693 3.43003 103.832C3.13969 103.97 2.86669 104.161 2.61103 104.404L1.55803 103.312C1.96969 102.913 2.43119 102.612 2.94253 102.408C3.45386 102.2 4.01936 102.096 4.63903 102.096ZM10.8739 112.789L9.26845 112.054L14.7349 100.712L16.3274 101.446L10.8739 112.789ZM23.3879 102.324L23.1604 103.793H19.8649V105.736C20.0859 105.632 20.3134 105.558 20.5474 105.515C20.7814 105.472 20.998 105.45 21.1974 105.45C21.661 105.45 22.0835 105.567 22.4649 105.801C22.8505 106.035 23.156 106.371 23.3814 106.809C23.611 107.246 23.7259 107.768 23.7259 108.375C23.7259 108.982 23.5764 109.526 23.2774 110.007C22.9827 110.488 22.571 110.867 22.0424 111.144C21.5137 111.417 20.8962 111.554 20.1899 111.554C19.5355 111.554 18.957 111.432 18.4544 111.19C17.9517 110.943 17.5335 110.615 17.1999 110.208L18.3829 109.129C18.5995 109.406 18.8487 109.619 19.1304 109.766C19.4164 109.909 19.7154 109.981 20.0274 109.981C20.504 109.981 20.8854 109.835 21.1714 109.545C21.4617 109.255 21.6069 108.876 21.6069 108.408C21.6069 108.035 21.5549 107.736 21.4509 107.511C21.3512 107.285 21.2104 107.123 21.0284 107.023C20.8464 106.919 20.634 106.867 20.3914 106.867C20.2267 106.867 20.0512 106.889 19.8649 106.932C19.6785 106.975 19.4857 107.053 19.2864 107.166H17.9019V102.324H23.3879Z" fill="#F8F8F8" fill-opacity="0.5"/>
<rect y="0.125" width="227" height="94.4012" rx="10" fill="#2D2E32"/>
<g clip-path="url(#clip0_398_22)">
<g filter="url(#filter0_i_398_22)">
<path d="M172.276 21.371C171.89 21.371 171.514 21.4522 171.182 21.6435L160.67 27.8222C159.99 28.2209 159.576 28.9746 159.576 29.7759V42.1112C159.576 42.9122 159.99 43.6646 160.67 44.0646L163.416 45.6748C164.75 46.3441 165.241 46.3334 165.849 46.3334C167.823 46.3334 168.95 45.1137 168.95 42.9939V30.8244C168.95 30.6523 168.804 30.5292 168.638 30.5292H167.321C167.153 30.5292 167.009 30.6555 167.009 30.8244V43.0002C167.009 43.9398 166.047 44.8851 164.487 44.0908L161.633 42.3872C161.532 42.3312 161.455 42.2293 161.455 42.1147V29.7794C161.455 29.6625 161.531 29.5432 161.633 29.4842L172.123 23.3276C172.222 23.2701 172.339 23.2701 172.436 23.3276L182.926 29.4842C183.025 29.5451 183.104 29.6588 183.104 29.7794V42.1147C183.104 42.2324 183.046 42.353 182.948 42.4098L172.436 48.5664C172.343 48.6211 172.218 48.6211 172.124 48.5664L169.422 46.931C169.342 46.883 169.232 46.8868 169.155 46.931C168.41 47.3611 168.269 47.4109 167.57 47.6578C167.399 47.7187 167.136 47.8137 167.66 48.1124L171.187 50.2278C171.522 50.4254 171.896 50.523 172.28 50.523C172.669 50.523 173.038 50.4283 173.374 50.2278L183.886 44.0712C184.566 43.6684 184.979 42.9188 184.979 42.1178V29.7825C184.979 28.9812 184.566 28.2292 183.886 27.8288L173.374 21.6502C173.044 21.4588 172.667 21.3777 172.28 21.3777L172.276 21.371ZM175.088 30.1854C172.095 30.1854 170.312 31.482 170.312 33.6382C170.312 35.9745 172.081 36.6198 174.955 36.909C178.391 37.2516 178.659 37.7653 178.659 38.4538C178.659 39.6483 177.724 40.1575 175.512 40.1575C172.735 40.1575 172.124 39.4515 171.92 38.0421C171.895 37.8912 171.781 37.7696 171.629 37.7696H170.264C170.182 37.7715 170.104 37.8056 170.046 37.8648C169.987 37.9241 169.954 38.0039 169.952 38.0876C169.952 39.8882 170.914 42.0174 175.51 42.0174C178.835 42.0174 180.755 40.6914 180.755 38.3601C180.755 36.0553 179.205 35.4324 175.978 34.9976C172.721 34.5557 172.408 34.3441 172.408 33.5665C172.408 32.9249 172.671 32.0668 175.086 32.0668C177.242 32.0668 178.039 32.5404 178.366 34.0205C178.395 34.1594 178.515 34.2731 178.657 34.2731H180.022C180.106 34.2731 180.186 34.2207 180.245 34.1594C180.301 34.094 180.342 34.0205 180.334 33.932C180.123 31.3829 178.453 30.1838 175.089 30.1838L175.088 30.1854Z" fill="#74FAC0"/>
<path d="M110.475 5.20073C110.357 5.20095 110.242 5.23228 110.14 5.29166C110.038 5.35205 109.954 5.43828 109.896 5.54186C109.837 5.64545 109.806 5.7628 109.805 5.88238V23.2604C109.805 23.4309 109.727 23.5837 109.582 23.6692C109.511 23.7114 109.43 23.7337 109.348 23.7337C109.265 23.7337 109.184 23.7114 109.114 23.6692L106.323 22.0338C106.12 21.9139 105.889 21.8508 105.654 21.8508C105.419 21.8508 105.188 21.9139 104.984 22.0338L93.8475 28.5759C93.4313 28.8203 93.1775 29.2907 93.1775 29.7797V42.8643C93.1772 43.1037 93.2389 43.3389 93.3565 43.5464C93.4741 43.7537 93.6434 43.9259 93.8472 44.0454L104.984 50.5878C105.188 50.7079 105.419 50.7712 105.654 50.7712C105.889 50.7712 106.12 50.7079 106.323 50.5878L117.461 44.0454C117.664 43.9259 117.833 43.7537 117.951 43.5464C118.069 43.3389 118.131 43.1037 118.131 42.8643V10.2438C118.131 9.74745 117.864 9.28177 117.438 9.03992L110.81 5.26861C110.706 5.20957 110.59 5.19915 110.475 5.20041V5.20073ZM38.8312 21.5337C38.6188 21.5426 38.4193 21.5801 38.2285 21.6929L27.0918 28.2349C26.8878 28.3542 26.7184 28.5263 26.6008 28.7338C26.4833 28.9412 26.4217 29.1766 26.4224 29.416L26.445 46.9762C26.445 47.2206 26.5691 47.4472 26.78 47.5666C26.9869 47.6929 27.2435 47.6929 27.4494 47.5666L34.0558 43.7047C34.4745 43.4521 34.7475 43.0114 34.7475 42.5239V34.323C34.7475 33.8336 35.0003 33.3853 35.4175 33.1422L38.2298 31.484C38.433 31.3637 38.6641 31.301 38.8992 31.3021C39.1344 31.3007 39.3657 31.3636 39.5689 31.484L42.3799 33.1412C42.7966 33.3844 43.0493 33.8333 43.0493 34.322V42.5226C43.0493 43.0108 43.3285 43.454 43.7411 43.7034L50.3474 47.5654C50.5552 47.6917 50.8112 47.6917 51.0168 47.5654C51.2215 47.4454 51.3518 47.219 51.3518 46.9749L51.3742 29.4154C51.3755 29.1758 51.3141 28.9402 51.1965 28.7326C51.0789 28.5251 50.9092 28.353 50.7047 28.2342L39.568 21.6925C39.3797 21.5801 39.1793 21.5422 38.9653 21.5334H38.8319L38.8312 21.5337ZM138.909 21.6929C138.674 21.6922 138.442 21.7549 138.239 21.8747L127.102 28.4171C126.687 28.6617 126.432 29.1092 126.432 29.5979V42.6824C126.432 43.1743 126.704 43.6201 127.123 43.8632L138.172 50.2723C138.579 50.5092 139.077 50.5272 139.488 50.2945L146.184 46.5008C146.397 46.3808 146.54 46.1566 146.54 45.9103C146.541 45.6641 146.416 45.4424 146.206 45.3199L135.001 38.7775C134.791 38.6557 134.645 38.4091 134.645 38.1641V34.0726C134.645 33.8282 134.793 33.6041 135.001 33.4822L138.483 31.4376C138.69 31.3157 138.945 31.3157 139.153 31.4376L142.636 33.4822C142.738 33.5419 142.823 33.6279 142.882 33.7316C142.94 33.8352 142.971 33.9529 142.971 34.0726V37.2983C142.971 37.4181 143.002 37.5358 143.061 37.6395C143.119 37.7431 143.203 37.8291 143.305 37.8888C143.515 38.0113 143.767 38.0119 143.975 37.8888L150.649 33.9369C151.063 33.6919 151.319 33.2432 151.319 32.7561V29.5988C151.319 29.3595 151.256 29.1243 151.139 28.917C151.022 28.7097 150.852 28.5375 150.649 28.4177L139.579 21.8754C139.376 21.7554 139.144 21.6926 138.909 21.6935V21.6929ZM105.609 31.4613C105.671 31.461 105.733 31.4765 105.788 31.5064L109.604 33.7554C109.708 33.8163 109.783 33.929 109.783 34.0506V38.5483C109.783 38.6705 109.708 38.7829 109.604 38.8435L105.788 41.0924C105.684 41.1524 105.557 41.1524 105.453 41.0924L101.636 38.8435C101.532 38.7826 101.458 38.6699 101.458 38.5483V34.0499C101.458 33.9281 101.533 33.8163 101.636 33.7547L105.453 31.5061C105.505 31.4755 105.551 31.461 105.609 31.461V31.4606V31.4613Z" fill="#74FAC0"/>
<path d="M72.2873 21.6244C72.0521 21.624 71.821 21.6866 71.6173 21.8062L60.4802 28.3259C60.0639 28.5702 59.8108 29.041 59.8108 29.5298V42.6142C59.8102 42.8537 59.8718 43.089 59.9894 43.2964C60.1069 43.5037 60.2763 43.6758 60.4802 43.7951L71.6173 50.3375C71.8207 50.4576 72.0516 50.5209 72.2868 50.5209C72.522 50.5209 72.753 50.4576 72.9564 50.3375L84.0935 43.7951C84.2974 43.6755 84.4666 43.5034 84.5842 43.2961C84.7018 43.0886 84.7635 42.8534 84.7632 42.614V29.5294C84.7632 29.04 84.5101 28.5696 84.0932 28.3256L72.9561 21.8059C72.7526 21.6858 72.5213 21.623 72.2861 21.624L72.2873 21.6244ZM138.887 33.3007C138.843 33.3007 138.794 33.3007 138.753 33.3228L136.61 34.5952C136.57 34.6177 136.537 34.6506 136.514 34.6904C136.49 34.7303 136.477 34.7757 136.477 34.8222V37.3212C136.477 37.4152 136.53 37.5011 136.61 37.5485L138.753 38.7977C138.789 38.821 138.833 38.8333 138.876 38.8333C138.919 38.8333 138.961 38.821 138.998 38.7977L141.14 37.5485C141.22 37.5021 141.275 37.4152 141.275 37.3212V34.8222C141.275 34.7281 141.22 34.6423 141.14 34.5949L138.998 33.3226C138.959 33.2985 138.931 33.3004 138.887 33.3004L138.887 33.3007Z" fill="#74FAC0"/>
</g>
<g filter="url(#filter1_i_398_22)">
<path d="M123.487 82.5889V61.2318H124.818V64.5913C124.976 64.4423 125.121 64.2841 125.253 64.1177C126.365 62.1103 128.711 60.8435 131.272 60.8685C134.308 60.7897 136.776 61.7674 138.226 64.1177C139.149 65.5778 139.656 67.2087 139.707 68.8742C139.757 70.5398 139.349 72.1917 138.515 73.692C137.165 76.3259 133.828 77.6354 130.256 77.1544C129.144 77.0721 128.074 76.749 127.142 76.2145C126.212 75.6799 125.449 74.951 124.925 74.0942V82.5879L123.487 82.5889ZM124.818 68.7867L125.117 71.2945C125.643 74.1489 127.583 75.8356 130.629 76.1525C132.059 76.3571 133.527 76.1238 134.781 75.4924C136.037 74.8611 137 73.8707 137.51 72.6902C138.695 70.2343 138.608 67.454 137.275 65.0556C136.732 63.9973 135.807 63.1217 134.641 62.5611C133.475 62.0005 132.13 61.7853 130.811 61.9482C129.572 62.0265 128.393 62.4384 127.436 63.1267C126.479 63.8149 125.793 64.7453 125.471 65.7886C125.187 66.776 124.97 67.7766 124.818 68.7858V68.7867ZM166.897 71.6893C166.695 73.193 165.873 74.5818 164.582 75.5973C163.291 76.6127 161.62 77.1858 159.88 77.21C154.296 77.4546 151.675 74.2286 151.258 70.5058C150.968 68.4842 151.346 66.4325 152.346 64.5903C153.042 63.3266 154.183 62.2885 155.602 61.6263C157.022 60.9641 158.647 60.7124 160.243 60.9074C161.759 61.0196 163.196 61.5437 164.352 62.4057C165.507 63.2678 166.321 64.424 166.679 65.7108C166.963 66.883 167.172 68.068 167.305 69.2603H152.638C152.366 72.6355 154.451 75.3491 157.406 76.0033C161.087 76.7911 164.233 75.4037 165.375 72.3593C165.629 71.5781 166.091 71.4678 166.907 71.6893H166.897ZM152.627 68.1797H165.746C165.663 64.5839 163.09 61.9704 159.598 61.9408C155.657 61.8851 152.799 64.3939 152.627 68.1797ZM169.609 71.7681H170.895C170.942 72.5921 171.25 73.389 171.784 74.0707C172.318 74.7526 173.058 75.293 173.923 75.6326C175.008 76.0576 176.19 76.2641 177.379 76.2368C178.569 76.2095 179.737 75.9492 180.795 75.4751C181.371 75.2491 181.855 74.8746 182.179 74.4021C182.504 73.9295 182.653 73.3818 182.608 72.8329C182.642 72.3035 182.476 71.7791 182.135 71.3393C181.795 70.8994 181.298 70.5681 180.722 70.3955C179.308 69.9377 177.803 69.6857 176.362 69.2834C174.862 68.912 173.395 68.4455 171.974 67.8877C169.651 66.9017 169.508 63.0612 172.137 61.8453C173.483 61.1844 174.998 60.8273 176.544 60.8067C178.09 60.7859 179.617 61.1022 180.985 61.7267C182.684 62.5422 183.623 64.1891 183.343 65.86H182.241C182.241 65.8137 182.14 65.7729 182.14 65.7256C182.004 62.6673 179.049 61.7109 175.876 61.9797C174.917 62.0724 174.009 62.3244 173.156 62.697C172.644 62.9005 172.217 63.2375 171.934 63.6614C171.652 64.0853 171.528 64.5751 171.58 65.063C171.581 65.5512 171.756 66.0272 172.08 66.4255C172.405 66.8238 172.863 67.1249 173.393 67.2872C174.778 67.7293 176.248 68.0129 177.681 68.3595L181.143 69.1472C181.93 69.3719 182.62 69.7991 183.122 70.3723C183.624 70.9455 183.914 71.6378 183.954 72.3575C184.23 73.9747 183.282 75.5641 181.606 76.3008C178.578 77.7911 173.591 77.3972 171.37 75.5131C170.233 74.5187 169.599 73.1684 169.612 71.7671L169.609 71.7681ZM200.27 65.8609H199.063C199.063 65.7191 198.999 65.5829 198.981 65.4745C198.962 64.6881 198.633 63.9313 198.048 63.3311C197.464 62.731 196.66 62.3238 195.772 62.178C194.096 61.7598 192.308 61.8348 190.686 62.3912C190.044 62.5508 189.479 62.8868 189.076 63.3488C188.673 63.8109 188.452 64.3742 188.446 64.9546C188.423 65.5243 188.628 66.0836 189.024 66.5377C189.42 66.9917 189.985 67.3128 190.622 67.4466L196.134 68.6773C196.73 68.8017 197.317 68.9571 197.892 69.1426C199.649 69.6986 200.842 71.1184 200.896 72.7412C200.922 73.5355 200.672 74.3181 200.177 74.9864C199.684 75.6545 198.968 76.1771 198.126 76.4853C196.847 76.9908 195.46 77.2583 194.055 77.2706C192.65 77.2829 191.258 77.0396 189.967 76.5566C188.905 76.1584 188.009 75.4869 187.4 74.6324C186.791 73.778 186.496 72.7815 186.557 71.7773H187.735C188.179 73.6355 189.646 75.1832 191.659 75.9153C193.671 76.6474 195.969 76.4676 197.799 75.4371C198.348 75.1886 198.804 74.8086 199.112 74.3418C199.421 73.875 199.569 73.341 199.54 72.8033C199.567 72.2735 199.395 71.7505 199.05 71.3134C198.705 70.8764 198.205 70.5492 197.626 70.3816C196.212 69.9238 194.708 69.6801 193.266 69.2695C191.757 68.9037 190.282 68.4425 188.851 67.8896C186.584 66.9193 186.403 63.1103 188.987 61.8953C190.35 61.2068 191.895 60.8368 193.471 60.8216C195.047 60.8062 196.601 61.1462 197.981 61.8082C198.77 62.2181 199.406 62.8188 199.81 63.5372C200.214 64.2555 200.369 65.0606 200.257 65.8544L200.27 65.8609ZM121.295 76.8244C120.821 76.9806 120.296 76.9801 119.822 76.8233C119.347 76.6664 118.956 76.3639 118.721 75.9728L114.033 70.3335L113.353 69.5457L107.913 75.9811C107.691 76.3553 107.321 76.6466 106.87 76.8004C106.42 76.9543 105.92 76.9602 105.465 76.817L112.473 68.6384L105.953 61.2485C106.92 60.9445 107.999 61.2744 108.537 62.0362L113.394 67.745L118.282 62.0585C118.505 61.6906 118.876 61.407 119.324 61.2616C119.772 61.1162 120.266 61.1191 120.711 61.2698L118.181 64.19L114.754 68.0703C114.659 68.1442 114.582 68.2347 114.531 68.336C114.479 68.4372 114.451 68.5469 114.451 68.6579C114.451 68.7688 114.479 68.8784 114.531 68.9797C114.582 69.081 114.659 69.1716 114.754 69.2454L121.282 76.8244H121.295ZM151.051 61.1697V62.2818C150.133 62.2295 149.214 62.345 148.352 62.6209C147.489 62.8967 146.703 63.3269 146.043 63.8836C145.384 64.4402 144.866 65.1109 144.522 65.8525C144.179 66.5941 144.018 67.39 144.051 68.1889C144.051 70.7863 144.051 73.3837 144.051 75.9811V76.8643H142.755V61.2392H144.033V64.4411C145.601 62.1057 148.021 61.2392 151.059 61.1762L151.051 61.1697ZM88.685 68.5365L89.256 66.0833C90.8242 61.2327 97.2163 59.2142 101.614 62.2188C104.189 63.9778 104.831 66.4698 104.706 69.2779H90.1989C89.9644 74.2935 94.1247 77.3221 99.4461 75.7763C101.2 75.2202 102.52 73.9524 102.954 72.3769C103.235 71.5892 103.7 71.4539 104.55 71.6819C104.408 72.6421 104.018 73.5619 103.409 74.372C102.8 75.1822 101.987 75.8615 101.032 76.3592C99.4552 77.1096 97.6456 77.4069 95.8625 77.2086C94.0794 77.0103 92.4139 76.3267 91.1044 75.2555C89.8089 73.9886 89.027 72.3871 88.8746 70.6958C88.8746 70.4178 88.7681 70.1583 88.6935 69.9081C88.6864 69.4403 88.6829 68.9832 88.6829 68.5365H88.685ZM90.217 68.1973H103.336C103.254 64.5616 100.616 61.9825 97.0981 61.9584C93.1818 61.912 90.38 64.4347 90.2074 68.1815L90.217 68.1973Z" fill="#74FAC0"/>
</g>
<path d="M73.922 67.289V70.7248H54.5044V67.289H73.922ZM66.0226 58.8969V79.8278H62.4232V58.8969H66.0226Z" fill="#74FAC0"/>
</g>
<defs>
<filter id="filter0_i_398_22" x="26.4224" y="5.20032" width="158.557" height="49.5708" filterUnits="userSpaceOnUse" color-interpolation-filters="sRGB">
<feFlood flood-opacity="0" result="BackgroundImageFix"/>
<feBlend mode="normal" in="SourceGraphic" in2="BackgroundImageFix" result="shape"/>
<feColorMatrix in="SourceAlpha" type="matrix" values="0 0 0 0 0 0 0 0 0 0 0 0 0 0 0 0 0 0 127 0" result="hardAlpha"/>
<feOffset dy="4"/>
<feGaussianBlur stdDeviation="2"/>
<feComposite in2="hardAlpha" operator="arithmetic" k2="-1" k3="1"/>
<feColorMatrix type="matrix" values="0 0 0 0 0 0 0 0 0 0 0 0 0 0 0 0 0 0 0.25 0"/>
<feBlend mode="normal" in2="shape" result="effect1_innerShadow_398_22"/>
</filter>
<filter id="filter1_i_398_22" x="88.6829" y="60.8057" width="112.215" height="25.7832" filterUnits="userSpaceOnUse" color-interpolation-filters="sRGB">
<feFlood flood-opacity="0" result="BackgroundImageFix"/>
<feBlend mode="normal" in="SourceGraphic" in2="BackgroundImageFix" result="shape"/>
<feColorMatrix in="SourceAlpha" type="matrix" values="0 0 0 0 0 0 0 0 0 0 0 0 0 0 0 0 0 0 127 0" result="hardAlpha"/>
<feOffset dy="4"/>
<feGaussianBlur stdDeviation="2"/>
<feComposite in2="hardAlpha" operator="arithmetic" k2="-1" k3="1"/>
<feColorMatrix type="matrix" values="0 0 0 0 0 0 0 0 0 0 0 0 0 0 0 0 0 0 0.25 0"/>
<feBlend mode="normal" in2="shape" result="effect1_innerShadow_398_22"/>
</filter>
<clipPath id="clip0_398_22">
<rect width="181.801" height="84.2505" fill="white" transform="translate(23.1018 5.20032)"/>
</clipPath>
</defs>
</svg>
