<svg width="227" height="114" viewBox="0 0 227 114" fill="none" xmlns="http://www.w3.org/2000/svg">
<rect width="227" height="93" rx="10" fill="#2D2E32"/>
<g clip-path="url(#clip0_398_14)">
<path d="M53.776 53.6744C57.3242 53.6744 60.2004 50.6586 60.2004 46.9384C60.2004 43.2181 57.3242 40.2023 53.776 40.2023C50.2279 40.2023 47.3516 43.2181 47.3516 46.9384C47.3516 50.6586 50.2279 53.6744 53.776 53.6744Z" fill="#74FAC0"/>
<path fill-rule="evenodd" clip-rule="evenodd" d="M53.7763 33.2424C62.402 33.2424 70.4151 34.5402 76.4569 36.721C83.7364 39.3488 88.2121 43.3317 88.2121 46.9383C88.2121 50.6966 83.4688 54.9279 75.6515 57.6437C69.7415 59.6966 61.9643 60.7684 53.7763 60.7684C45.3814 60.7684 37.4318 59.7625 31.4553 57.6211C23.8937 54.9112 19.3394 50.6251 19.3394 46.9383C19.3394 43.361 23.6128 39.4088 30.79 36.7851C36.8543 34.5683 45.0652 33.2424 53.7752 33.2424H53.7763Z" stroke="#74FAC0" stroke-width="4"/>
<path fill-rule="evenodd" clip-rule="evenodd" d="M42.4051 40.1299C46.7144 32.2954 51.7895 25.6655 56.6097 21.2672C62.4173 15.968 67.9441 13.8927 70.9236 15.6942C74.0289 17.5718 75.155 23.9942 73.4935 32.451C72.2384 38.8448 69.2374 46.4438 65.1469 53.881C60.9529 61.5061 56.1507 68.224 51.3961 72.5815C45.3797 78.0958 39.5632 80.0913 36.5173 78.2495C33.5616 76.4637 32.4314 70.6067 33.8492 62.7768C35.0473 56.1612 38.0537 48.0411 42.4038 40.1298L42.4051 40.1299Z" stroke="#74FAC0" stroke-width="4"/>
<path fill-rule="evenodd" clip-rule="evenodd" d="M42.4158 53.901C38.0943 46.0752 35.1521 38.1525 33.924 31.5774C32.4457 23.6553 33.4909 17.5982 36.4678 15.7915C39.57 13.9084 45.4392 16.0928 51.597 21.8257C56.2528 26.16 61.0335 32.6799 65.136 40.1101C69.3421 47.7278 72.4944 55.4454 73.7207 61.9405C75.2724 70.1597 74.0166 76.4398 70.9734 78.2868C68.0207 80.0791 62.6174 78.1816 56.8559 72.9831C51.988 68.591 46.7798 61.8045 42.4158 53.9008V53.901Z" stroke="#74FAC0" stroke-width="4"/>
<path d="M125.085 64.9185L126.484 64.9261L125.732 63.7343L118.484 52.2534C120.197 51.8716 121.798 51.0132 123.044 49.6788C124.585 48.03 125.543 45.6982 125.543 42.7593C125.543 39.7675 124.526 37.2562 122.745 35.4927C120.965 33.7314 118.48 32.7715 115.64 32.7715H103.921H103.158V33.5416V64.1252V64.8953H103.921H107.551H108.313V64.1252V52.7433H112.943L120.154 64.53L120.376 64.893L120.798 64.8953L125.085 64.9185ZM115.205 47.8791H108.315V37.7266H115.205C116.756 37.7266 118.009 38.2582 118.873 39.1249C119.736 39.9912 120.26 41.2433 120.26 42.7806C120.26 44.3184 119.735 45.5843 118.869 46.4637C118.046 47.2993 116.872 47.8292 115.431 47.8791H115.205ZM130.323 61.9906C132.24 64.0422 134.88 65.2706 137.914 65.4315L137.918 65.467H138.603C142.246 65.467 145.292 64.2043 147.549 61.8398L147.987 61.3808L147.623 60.8603L146.048 58.6121L145.509 57.8427L144.87 58.5297C143.359 60.1552 141.116 61.0835 138.91 61.0835C135.139 61.0835 132.677 58.4297 132.148 54.9682H148.398H149.16V54.1981V53.3259C149.16 49.862 148.181 46.7086 146.308 44.4058C144.423 42.0876 141.669 40.679 138.25 40.679C131.712 40.679 127.081 46.2935 127.081 53.0507C127.081 56.6839 128.265 59.7883 130.323 61.9906ZM170.181 64.9166L170.945 64.9175V64.1465V48.9225C170.945 46.0426 169.937 43.9369 168.242 42.571C166.575 41.2277 164.341 40.6771 162.004 40.6771C158.34 40.6771 155.427 41.9549 153.006 44.5924L152.602 45.032L152.925 45.5351L154.456 47.919L154.996 48.7614L155.662 48.0154C157.411 46.0525 159.269 45.1981 161.568 45.1981C162.967 45.1981 164.115 45.5857 164.898 46.2416C165.665 46.8837 166.143 47.8306 166.143 49.1047V51.2773C164.429 49.9232 162.298 49.2959 159.907 49.2959C157.959 49.2959 155.928 49.9294 154.371 51.2682C152.796 52.6221 151.75 54.6615 151.75 57.3573C151.75 62.6928 155.998 65.4651 159.907 65.4651C162.292 65.4651 164.418 64.7675 166.143 63.4084V64.1426V64.9118L166.904 64.9127L170.181 64.9166ZM161.088 53.315C163.138 53.315 165.028 54.0923 166.143 55.5493V59.2175C165.062 60.6309 163.246 61.4064 161.265 61.4499H161.088C158.387 61.4499 156.645 59.7197 156.645 57.4057C156.645 56.1891 157.099 55.1818 157.855 54.474C158.615 53.7626 159.724 53.315 161.088 53.315ZM185.28 65.4283V65.467H186.042C190.167 65.467 192.654 63.6697 194.395 61.3054L194.797 60.759L194.309 60.2888L192.123 58.1801L191.488 57.5683L190.977 58.2883C189.714 60.0674 188.147 60.8549 186.236 60.8549C184.206 60.8549 182.597 60.0366 181.481 58.6844C180.355 57.3189 179.697 55.361 179.697 53.0507C179.697 50.7407 180.355 48.7958 181.481 47.4426C182.594 46.1023 184.204 45.2931 186.236 45.2931C188.176 45.2931 189.733 46.0441 190.97 47.849L191.477 48.5902L192.123 47.9679L194.309 45.8592L194.771 45.4137V45.797H195.533H198.271V59.5183C198.271 61.2816 198.691 62.7888 199.64 63.8615C200.603 64.9487 202.005 65.4709 203.713 65.4709H204.475V65.4361C206.159 65.2946 207.322 64.6799 208.184 63.8262L208.54 63.4742L208.364 63.0039L207.402 60.4359L206.953 59.2373L206.116 60.2001C205.839 60.5193 205.201 60.8549 204.458 60.8549C203.976 60.8549 203.674 60.6711 203.466 60.3756C203.234 60.0463 203.076 59.5123 203.076 58.7817V45.7951H206.602H207.364V45.0249V41.9995V41.2294H206.602H203.076V35.9468V35.1767H202.314H199.033H198.271V35.9468V41.2294H195.533H194.771V41.9995V45.0269V45.3552L194.395 44.8431C192.657 42.4759 190.166 40.681 186.042 40.681C179.248 40.681 174.74 46.1514 174.74 53.0527C174.74 59.7369 178.913 65.0363 185.28 65.4283ZM142.88 47.2223C143.719 48.2851 144.2 49.6187 144.351 50.9026H132.146C132.347 49.5903 132.873 48.2531 133.724 47.194C134.735 45.9346 136.209 45.0586 138.211 45.0586C140.375 45.0586 141.887 45.9649 142.88 47.2223Z" fill="#F8F8F8"/>
</g>
<path d="M3.081 99.5438L4.8295 100.187L2.6975 105.348H7.1955V106.889H0.5785V105.524L3.081 99.5438ZM6.292 103.177V108.78H4.3225L4.2965 105.556L4.5565 103.177H6.292ZM9.77092 110.236L8.16542 109.502L13.6319 98.1593L15.2244 98.8938L9.77092 110.236ZM22.2848 99.7713L22.0573 101.24H18.7618V103.184C18.9828 103.08 19.2103 103.006 19.4443 102.963C19.6783 102.92 19.895 102.898 20.0943 102.898C20.558 102.898 20.9805 103.015 21.3618 103.249C21.7475 103.483 22.053 103.819 22.2783 104.256C22.508 104.694 22.6228 105.216 22.6228 105.823C22.6228 106.43 22.4733 106.973 22.1743 107.454C21.8797 107.935 21.468 108.315 20.9393 108.592C20.4107 108.865 19.7932 109.001 19.0868 109.001C18.4325 109.001 17.854 108.88 17.3513 108.637C16.8487 108.39 16.4305 108.063 16.0968 107.656L17.2798 106.577C17.4965 106.854 17.7457 107.067 18.0273 107.214C18.3133 107.357 18.6123 107.428 18.9243 107.428C19.401 107.428 19.7823 107.283 20.0683 106.993C20.3587 106.703 20.5038 106.323 20.5038 105.855C20.5038 105.483 20.4518 105.184 20.3478 104.958C20.2482 104.733 20.1073 104.571 19.9253 104.471C19.7433 104.367 19.531 104.315 19.2883 104.315C19.1237 104.315 18.9482 104.337 18.7618 104.38C18.5755 104.423 18.3827 104.501 18.1833 104.614H16.7988V99.7713H22.2848Z" fill="#F8F8F8" fill-opacity="0.5"/>
<defs>
<clipPath id="clip0_398_14">
<rect x="17.0752" y="13.5" width="192.85" height="67" rx="10" fill="white"/>
</clipPath>
</defs>
</svg>
