<svg width="227" height="114" viewBox="0 0 227 114" fill="none" xmlns="http://www.w3.org/2000/svg">
<path d="M3.081 100.574L4.8295 101.217L2.6975 106.378H7.1955V107.919H0.5785V106.554L3.081 100.574ZM6.292 104.207V109.81H4.3225L4.2965 106.586L4.5565 104.207H6.292ZM9.77092 111.266L8.16542 110.532L13.6319 99.1892L15.2244 99.9237L9.77092 111.266ZM22.2848 100.801L22.0573 102.27H18.7618V104.214C18.9828 104.11 19.2103 104.036 19.4443 103.993C19.6783 103.949 19.895 103.928 20.0943 103.928C20.558 103.928 20.9805 104.045 21.3618 104.279C21.7475 104.513 22.053 104.849 22.2783 105.286C22.508 105.724 22.6228 106.246 22.6228 106.853C22.6228 107.459 22.4733 108.003 22.1743 108.484C21.8797 108.965 21.468 109.344 20.9393 109.622C20.4107 109.895 19.7932 110.031 19.0868 110.031C18.4325 110.031 17.854 109.91 17.3513 109.667C16.8487 109.42 16.4305 109.093 16.0968 108.686L17.2798 107.607C17.4965 107.884 17.7457 108.096 18.0273 108.244C18.3133 108.387 18.6123 108.458 18.9243 108.458C19.401 108.458 19.7823 108.313 20.0683 108.023C20.3587 107.732 20.5038 107.353 20.5038 106.885C20.5038 106.513 20.4518 106.214 20.3478 105.988C20.2482 105.763 20.1073 105.6 19.9253 105.501C19.7433 105.397 19.531 105.345 19.2883 105.345C19.1237 105.345 18.9482 105.366 18.7618 105.41C18.5755 105.453 18.3827 105.531 18.1833 105.644H16.7988V100.801H22.2848Z" fill="#F8F8F8" fill-opacity="0.5"/>
<rect x="0.890381" width="226.11" height="87.5174" rx="10" fill="#2D2E32"/>
<g filter="url(#filter0_i_398_16)">
<path fill-rule="evenodd" clip-rule="evenodd" d="M44.631 35.0718C45.8597 35.088 46.954 35.1335 47.6689 35.1915C50.7459 35.4417 53.6247 36.0117 56.0404 36.7929C59.7314 37.9864 63.1679 39.7537 66.3496 42.0947C69.0384 44.3281 70.8602 46.155 71.815 47.5755C72.382 48.4191 73.3804 49.758 74.1395 51.5102C74.3509 51.9981 74.6695 52.7044 74.9601 53.6385C75.0836 54.0355 75.2623 54.7233 75.4963 55.7018C75.6362 56.9472 75.7106 57.8295 75.7194 58.3488C75.7376 59.4305 75.6088 60.324 75.4963 60.9674C75.3733 61.6717 75.1817 62.5401 74.7628 63.5153C74.6032 63.8866 74.2893 64.4781 73.8206 65.2901C72.4836 67.0959 71.0191 68.5222 69.4273 69.569C67.8354 70.6158 65.8011 71.498 63.3243 72.2154C61.2091 72.8473 58.6243 73.0279 55.5697 72.7571C54.1869 72.6345 52.5944 72.288 51.2153 71.9047C50.3029 71.6511 49.0054 71.1737 47.3228 70.4724L51.0736 67.6677C52.0148 68.0303 52.7049 68.2756 53.1441 68.4038C54.2817 68.7357 55.3265 68.9088 56.0404 69.0267C56.6795 69.1324 57.4463 69.2187 58.3521 69.253C58.8136 69.2705 59.5853 69.2705 60.6676 69.253C61.7514 69.0971 62.515 68.9643 62.9582 68.8545C64.1186 68.5672 64.9794 68.1842 65.6358 67.8564C66.2558 67.5468 67.0239 67.1193 67.7754 66.4834C68.1086 66.2015 68.61 65.6913 69.2796 64.953C70.1414 63.7785 70.7038 62.9241 70.9673 62.3899C71.4163 61.4792 71.5827 60.5449 71.6995 59.9102C71.837 59.163 71.9835 58.1657 71.815 56.9618C71.7479 56.4827 71.5388 55.69 71.1876 54.5837C70.6253 52.995 69.9893 51.7038 69.2796 50.7101C68.2151 49.2193 67.4484 48.3074 66.7711 47.5755C66.0161 46.7597 64.8327 45.72 63.3243 44.6667C62.7131 44.2399 61.6745 43.5908 60.2084 42.7196C58.7937 41.9847 57.706 41.4638 56.9454 41.1572C55.1234 40.4228 53.0856 39.8298 51.8963 39.5644C50.6874 39.2948 48.6965 38.961 46.6334 38.8396C46.0967 38.8081 45.1801 38.7096 44.2642 38.7191C43.9392 38.7225 43.462 38.7505 42.8324 38.8031C42.1192 40.3695 40.4599 41.4675 38.5267 41.4675C35.9429 41.4675 33.8481 39.5058 33.8481 37.0859C33.8481 34.6661 35.9429 32.7043 38.5267 32.7043C40.3352 32.7043 41.9041 33.6652 42.6828 35.0716C43.5648 35.0663 44.2142 35.0664 44.631 35.0718Z" fill="#74FAC0"/>
<path fill-rule="evenodd" clip-rule="evenodd" d="M54.2709 57.0691C53.6414 58.0575 53.0519 58.9224 52.6406 59.4731C50.87 61.8436 48.9028 63.8935 46.9717 65.4622C44.0213 67.8589 40.6676 69.7624 36.9104 71.1725C33.4993 72.2365 30.8979 72.8005 29.1063 72.8647C28.0423 72.9028 26.3041 73.0431 24.3034 72.7826C23.7465 72.7101 22.9337 72.6154 21.9242 72.384C21.4951 72.2857 20.7694 72.0868 19.747 71.7872C18.5251 71.278 17.6717 70.8972 17.1869 70.6446C16.1771 70.1186 15.4148 69.5674 14.876 69.1545C14.286 68.7025 13.5784 68.113 12.8858 67.2855C12.6221 66.9706 12.2319 66.4201 11.7151 65.6341C10.7135 63.6467 10.1265 61.7458 9.95429 59.9313C9.78208 58.1169 9.9836 56.026 10.5587 53.6584C11.0322 51.6269 12.1582 49.4402 13.9366 47.0982C14.7416 46.0381 15.8587 44.9198 16.9033 43.9928C17.5942 43.3796 18.6848 42.566 20.1751 41.5519L20.8937 45.9964C20.0875 46.5784 19.5153 47.0155 19.1771 47.3077C18.301 48.0643 17.6183 48.8252 17.1521 49.3452C16.7347 49.8108 16.2713 50.3895 15.7864 51.107C15.5394 51.4724 15.1534 52.0983 14.6283 52.9848C14.2304 53.9419 13.9712 54.6275 13.8511 55.0419C13.5364 56.1267 13.4603 57.0164 13.4352 57.7125C13.4114 58.3702 13.4228 59.207 13.6351 60.1344C13.7292 60.5457 13.9503 61.2074 14.2985 62.1197C14.9539 63.4058 15.463 64.2892 15.8254 64.7699C16.4433 65.5894 17.2244 66.1916 17.7532 66.6037C18.3756 67.0888 19.2249 67.7063 20.423 68.1715C20.8997 68.3566 21.7376 68.5834 22.9368 68.8517C24.6877 69.1899 26.2004 69.3198 27.4747 69.2411C29.3862 69.1231 30.6134 68.9573 31.6292 68.7739C32.7616 68.5695 34.3154 68.1295 36.0442 67.4328C36.7448 67.1505 37.8647 66.6326 39.4041 65.8791C40.7916 65.0993 41.8174 64.4775 42.4816 64.014C44.0723 62.9035 45.6404 61.5472 46.4807 60.7153C47.3348 59.8696 48.6395 58.4219 49.7837 56.8093C50.0814 56.3897 50.6309 55.6956 51.0802 54.9479C51.2396 54.6827 51.4525 54.2818 51.7187 53.7448C50.6264 52.3831 50.4406 50.4884 51.4076 48.9205C52.7001 46.8248 55.5626 46.1068 57.8013 47.3167C60.0399 48.5267 60.807 51.2064 59.5144 53.302C58.6098 54.7689 56.9362 55.5607 55.2456 55.4891C54.8093 56.2072 54.4844 56.7338 54.2709 57.0691Z" fill="#74FAC0"/>
<path fill-rule="evenodd" clip-rule="evenodd" d="M27.7312 52.6603C27.1504 51.6465 26.6621 50.7284 26.3698 50.1149C25.1112 47.4742 24.2477 44.8408 23.806 42.4843C23.131 38.8838 23.1155 35.2137 23.7593 31.474C24.5418 28.1901 25.365 25.8131 26.2289 24.3428C26.742 23.4698 27.5087 22.0034 28.7774 20.5327C29.1306 20.1232 29.6359 19.52 30.3675 18.8294C30.6786 18.5359 31.2344 18.0562 32.035 17.3904C33.1306 16.6724 33.9188 16.1839 34.3996 15.9251C35.4012 15.3859 36.2983 15.0583 36.9538 14.8386C37.6715 14.598 38.5756 14.334 39.6898 14.2045C40.114 14.1551 40.8189 14.1255 41.8046 14.1157C44.1399 14.3354 46.1825 14.8432 47.9324 15.6392C49.6821 16.4353 51.4927 17.6734 53.3641 19.3537C54.9802 20.7794 56.4023 22.8084 57.6306 25.4407C58.1865 26.6322 58.6351 28.1039 58.9459 29.419C59.1514 30.2889 59.3347 31.5827 59.4956 33.3002L55.0566 31.5884C54.939 30.642 54.8335 29.9581 54.7402 29.5363C54.4985 28.4441 54.1536 27.5047 53.9176 26.863C53.7063 26.2884 53.4151 25.6188 53.0079 24.8605C52.8005 24.4743 52.4262 23.8423 51.8851 22.9647C51.2139 22.1528 50.7195 21.592 50.402 21.2823C49.5709 20.4714 48.7956 19.9523 48.1712 19.5737C47.5812 19.216 46.8093 18.7943 45.8509 18.4872C45.4259 18.351 44.7063 18.1877 43.6918 17.9972C42.1768 17.8609 41.1058 17.8143 40.479 17.8576C39.4106 17.9313 38.4572 18.2478 37.8075 18.4597C37.0429 18.7093 36.0402 19.0726 34.9973 19.794C34.5823 20.0811 33.9432 20.6365 33.08 21.4603C31.8687 22.6905 30.9708 23.837 30.3866 24.8997C29.5102 26.4938 29.0302 27.5635 28.6749 28.4727C28.2789 29.4862 27.8815 30.9591 27.6291 32.7046C27.5268 33.4118 27.4241 34.5768 27.3213 36.1995C27.3207 37.714 27.3617 38.8569 27.4441 39.6283C27.6416 41.476 28.0757 43.432 28.4047 44.5343C28.7389 45.6549 29.3926 47.4467 30.2797 49.1948C30.5105 49.6496 30.8631 50.4477 31.3161 51.1931C31.4768 51.4574 31.7344 51.8346 32.0889 52.3247C33.8979 52.1495 35.7283 52.976 36.6658 54.5588C37.9188 56.6745 37.1021 59.3403 34.8415 60.513C32.581 61.6858 29.7326 60.9213 28.4796 58.8057C27.6026 57.3249 27.7395 55.5747 28.6757 54.2555C28.243 53.5359 27.9282 53.0042 27.7312 52.6603Z" fill="#74FAC0"/>
</g>
<path d="M90.895 29.0548H102.198C104.761 29.0548 106.926 29.4224 108.693 30.1576C110.475 30.8928 111.827 31.9809 112.75 33.4218C113.687 34.8481 114.156 36.6052 114.156 38.6932C114.156 40.1636 113.836 41.509 113.195 42.7294C112.57 43.9351 111.663 44.9643 110.475 45.8172C109.302 46.6553 107.895 47.2803 106.254 47.692L104.988 48.1551H94.3655L94.3186 44.6924H102.338C103.963 44.6924 105.316 44.4277 106.395 43.8983C107.473 43.3543 108.287 42.6265 108.834 41.7148C109.381 40.8032 109.654 39.796 109.654 38.6932C109.654 37.4581 109.396 36.3773 108.881 35.451C108.365 34.5246 107.551 33.8115 106.442 33.3115C105.347 32.797 103.932 32.5396 102.198 32.5396H95.4207V61.168H90.895V29.0548ZM110.85 61.168L102.549 46.6112L107.262 46.5892L115.68 60.9034V61.168H110.85ZM130.359 61.6092C128.593 61.6092 126.991 61.3298 125.553 60.771C124.13 60.1976 122.903 59.3962 121.871 58.3669C120.855 57.3377 120.073 56.1173 119.526 54.7057C118.979 53.2941 118.706 51.7502 118.706 50.0739V49.1477C118.706 47.2068 119.01 45.479 119.62 43.9646C120.229 42.4354 121.058 41.1414 122.105 40.0828C123.153 39.0241 124.341 38.2227 125.67 37.6787C126.999 37.1345 128.374 36.8626 129.797 36.8626C131.61 36.8626 133.174 37.1567 134.486 37.7448C135.815 38.333 136.901 39.1564 137.746 40.2151C138.59 41.2591 139.216 42.4941 139.622 43.9204C140.028 45.332 140.231 46.8759 140.231 48.5522V50.3828H121.285V47.0523H135.894V46.7436C135.831 45.6849 135.597 44.6556 135.19 43.6557C134.799 42.6559 134.174 41.8324 133.314 41.1855C132.454 40.5385 131.282 40.2151 129.797 40.2151C128.812 40.2151 127.905 40.4135 127.077 40.8106C126.248 41.1928 125.537 41.7663 124.943 42.5309C124.348 43.2955 123.888 44.2292 123.559 45.332C123.231 46.4348 123.067 47.7066 123.067 49.1477V50.0739C123.067 51.2062 123.231 52.2722 123.559 53.2721C123.903 54.2572 124.395 55.1247 125.037 55.8747C125.693 56.6246 126.482 57.2127 127.405 57.6391C128.343 58.0655 129.406 58.2787 130.594 58.2787C132.126 58.2787 133.424 57.9847 134.486 57.3965C135.55 56.8084 136.479 56.0216 137.277 55.0366L139.903 56.9995C139.356 57.7788 138.66 58.5213 137.816 59.2271C136.972 59.9329 135.933 60.5064 134.697 60.9475C133.478 61.3886 132.032 61.6092 130.359 61.6092ZM161.288 56.5363V27.2903H165.65V61.168H161.663L161.288 56.5363ZM144.218 49.5006V49.0374C144.218 47.2141 144.452 45.5599 144.921 44.0748C145.406 42.575 146.086 41.2884 146.961 40.2151C147.853 39.1417 148.907 38.3183 150.127 37.7448C151.361 37.1567 152.737 36.8626 154.254 36.8626C155.849 36.8626 157.239 37.1272 158.428 37.6565C159.631 38.1712 160.648 38.9285 161.476 39.9283C162.321 40.9135 162.985 42.1045 163.469 43.5014C163.954 44.8982 164.29 46.4789 164.478 48.2433V50.2725C164.306 52.0222 163.97 53.5955 163.469 54.9924C162.985 56.3893 162.321 57.5803 161.476 58.5655C160.648 59.5506 159.631 60.3078 158.428 60.8372C157.224 61.3518 155.818 61.6092 154.207 61.6092C152.722 61.6092 151.361 61.3077 150.127 60.7049C148.907 60.102 147.853 59.2566 146.961 58.1685C146.086 57.0803 145.406 55.8012 144.921 54.3308C144.452 52.8456 144.218 51.2356 144.218 49.5006ZM148.579 49.0374V49.5006C148.579 50.6916 148.704 51.809 148.954 52.853C149.22 53.8969 149.627 54.816 150.174 55.61C150.721 56.404 151.416 57.0289 152.261 57.4847C153.105 57.9259 154.113 58.1464 155.285 58.1464C156.724 58.1464 157.905 57.8597 158.826 57.2862C159.765 56.7127 160.515 55.9555 161.077 55.0144C161.64 54.0734 162.078 53.0515 162.391 51.9487V46.6333C162.203 45.8245 161.93 45.0453 161.57 44.2953C161.226 43.5307 160.773 42.8544 160.21 42.2663C159.662 41.6633 158.983 41.1855 158.17 40.8326C157.372 40.4797 156.427 40.3032 155.332 40.3032C154.145 40.3032 153.12 40.5385 152.261 41.009C151.416 41.4649 150.721 42.0972 150.174 42.9059C149.627 43.6999 149.22 44.6262 148.954 45.6849C148.704 46.7288 148.579 47.8464 148.579 49.0374ZM187.926 55.6541V37.3037H192.288V61.168H188.137L187.926 55.6541ZM188.748 50.6254L190.552 50.5813C190.552 52.1693 190.373 53.6397 190.013 54.9924C189.67 56.3305 189.107 57.4921 188.325 58.4772C187.543 59.4624 186.519 60.2343 185.253 60.7931C183.987 61.3371 182.448 61.6092 180.634 61.6092C179.399 61.6092 178.265 61.4401 177.234 61.1019C176.218 60.7637 175.342 60.2417 174.608 59.5359C173.872 58.8301 173.302 57.9112 172.896 56.7789C172.505 55.6467 172.31 54.2866 172.31 52.6986V37.3037H176.648V52.7428C176.648 53.8161 176.773 54.7057 177.023 55.4115C177.288 56.1026 177.64 56.6539 178.078 57.0656C178.532 57.4627 179.032 57.7421 179.579 57.9037C180.141 58.0655 180.72 58.1464 181.314 58.1464C183.159 58.1464 184.621 57.8156 185.699 57.1539C186.778 56.4775 187.551 55.5732 188.02 54.4411C188.504 53.2941 188.748 52.0222 188.748 50.6254ZM201.832 37.3037L207.389 45.9937L213.016 37.3037H218.105L209.804 49.0814L218.363 61.168H213.346L207.483 52.2134L201.621 61.168H196.579L205.115 49.0814L196.838 37.3037H201.832Z" fill="#F8F8F8"/>
<defs>
<filter id="filter0_i_398_16" x="9.89478" y="14.1157" width="65.8264" height="58.8209" filterUnits="userSpaceOnUse" color-interpolation-filters="sRGB">
<feFlood flood-opacity="0" result="BackgroundImageFix"/>
<feBlend mode="normal" in="SourceGraphic" in2="BackgroundImageFix" result="shape"/>
<feColorMatrix in="SourceAlpha" type="matrix" values="0 0 0 0 0 0 0 0 0 0 0 0 0 0 0 0 0 0 127 0" result="hardAlpha"/>
<feOffset/>
<feGaussianBlur stdDeviation="2"/>
<feComposite in2="hardAlpha" operator="arithmetic" k2="-1" k3="1"/>
<feColorMatrix type="matrix" values="0 0 0 0 0 0 0 0 0 0 0 0 0 0 0 0 0 0 0.25 0"/>
<feBlend mode="normal" in2="shape" result="effect1_innerShadow_398_16"/>
</filter>
</defs>
</svg>
