<svg width="226" height="114" viewBox="0 0 226 114" fill="none" xmlns="http://www.w3.org/2000/svg">
<rect y="4.55518" width="226" height="89.1855" rx="10" fill="#2D2E32"/>
<path d="M159.218 52.9233C154.753 52.9454 150.871 53.9768 147.622 55.5016C146.429 53.2368 145.237 51.2191 145.027 49.739C144.793 48.0127 144.512 46.9587 144.793 44.8958C145.073 42.8329 146.336 39.8954 146.312 39.6713C146.289 39.4472 146.032 38.3932 143.46 38.371C140.888 38.3484 138.667 38.8418 138.41 39.4919C138.153 40.1421 137.662 41.6221 137.335 43.1465C136.89 45.3892 132.191 53.3936 129.503 57.5867C128.638 55.9503 127.89 54.5149 127.726 53.3714C127.492 51.6452 127.211 50.5911 127.492 48.5282C127.773 46.4653 129.035 43.5283 129.012 43.3037C128.988 43.0796 128.731 42.0256 126.159 42.0035C123.587 41.9809 121.366 42.4742 121.109 43.1243C120.852 43.7749 120.571 45.2993 120.034 46.7793C119.496 48.2594 113.254 61.6235 111.617 65.076C110.956 66.4734 110.262 67.8568 109.536 69.2244C109.536 69.2244 109.513 69.2917 109.443 69.4038C109.214 69.8327 108.981 70.2587 108.742 70.6819V70.704C108.391 71.3099 108.017 71.8701 107.83 71.8701C107.689 71.8701 107.432 70.2558 107.876 68.0583C108.811 63.4171 111.032 56.197 111.009 55.9503C111.009 55.8156 111.43 54.5601 109.56 53.9095C107.736 53.2594 107.082 54.3356 106.918 54.3356C106.754 54.3356 106.637 54.7169 106.637 54.7169C106.637 54.7169 108.671 46.6 102.756 46.6C99.0624 46.6 93.9653 50.4791 91.4404 53.9768C88.57 55.4747 85.7021 56.9774 82.8366 58.4839C81.4578 59.224 80.0314 59.964 78.6987 60.6589C78.6049 60.5694 78.5117 60.4569 78.4179 60.3675C71.2637 53.0353 58.0311 47.8555 58.5922 38.0123C58.8028 34.4246 60.0883 25.007 84.0059 13.5717C103.691 4.26613 119.356 6.8445 122.068 12.5624C125.949 20.7245 113.675 35.8821 93.3341 38.0792C85.5722 38.9091 81.5039 36.0389 80.4756 34.9627C79.4001 33.8414 79.2362 33.774 78.8386 33.9986C78.1843 34.3352 78.6049 35.344 78.8386 35.9268C79.4468 37.4512 81.9482 40.1421 86.1799 41.4654C89.9207 42.631 99.0153 43.2816 110.027 39.2005C122.348 34.6261 131.981 21.9127 129.152 11.2621C126.323 0.454365 107.619 -3.11072 89.9207 2.92069C79.4001 6.50886 67.9906 12.1589 59.7845 19.5137C50.035 28.2581 48.4918 35.8595 49.123 39.0438C51.3913 50.3444 67.6402 57.6992 74.1396 63.1478C73.8122 63.3271 73.5079 63.4844 73.2512 63.619C70.0012 65.1659 57.61 71.3767 54.5239 77.9467C51.0172 85.3909 55.0855 90.7279 57.7739 91.4449C66.1205 93.665 74.7007 89.6739 79.3064 83.0813C83.9121 76.4892 83.351 67.9237 81.2237 63.9999C81.2001 63.9551 81.177 63.9099 81.1299 63.8652C81.9717 63.3945 82.8366 62.9011 83.6784 62.4303C85.2256 61.5533 86.7925 60.7084 88.3779 59.8962C87.5827 61.9817 86.9981 64.4706 86.7178 68.0583C86.3669 72.274 88.1668 77.7447 90.5284 79.897C91.5808 80.8395 92.8197 80.8617 93.6149 80.8617C96.3735 80.8617 97.6129 78.6641 98.9922 76.0632C100.675 72.8794 102.195 69.1797 102.195 69.1797C102.195 69.1797 100.301 79.1801 105.445 79.1801C107.315 79.1801 109.209 76.8479 110.051 75.6597V75.6818C110.051 75.6818 110.097 75.6145 110.191 75.4578C110.378 75.1664 110.495 74.9865 110.495 74.9865V74.9423C111.243 73.6863 112.927 70.8386 115.428 66.1075C118.655 60.0087 121.764 52.3852 121.764 52.3852C121.764 52.3852 122.045 54.2461 123.003 57.3405C123.565 59.1567 124.733 61.1522 125.668 63.0805C124.92 64.0898 124.453 64.65 124.453 64.65L124.476 64.6726C123.868 65.4347 123.214 66.2642 122.489 67.0721C119.94 69.9866 116.901 73.328 116.48 74.2917C115.989 75.4352 116.106 76.2651 117.042 76.9379C117.719 77.4312 118.935 77.4981 120.174 77.4312C122.466 77.274 124.078 76.7359 124.873 76.3998C126.113 75.9737 127.562 75.3231 128.918 74.359C131.42 72.5875 132.939 70.0539 132.799 66.7133C132.729 64.8745 132.098 63.0357 131.326 61.309C131.56 60.9955 131.77 60.6815 132.004 60.3675C135.955 54.8289 139.018 48.7523 139.018 48.7523C139.018 48.7523 139.299 50.6132 140.257 53.708C140.725 55.2776 141.684 56.9817 142.525 58.6407C138.808 61.5335 136.516 64.8967 135.698 67.0942C134.226 71.1752 135.371 73.0136 137.545 73.4396C138.527 73.6416 139.93 73.1929 140.959 72.7669C142.268 72.3634 143.811 71.6686 145.284 70.6367C147.786 68.8657 150.194 66.3989 150.053 63.0583C149.983 61.5335 149.562 60.0309 148.978 58.5734C152.134 57.3183 156.202 56.623 161.392 57.2058C172.521 58.4613 174.719 65.1208 174.298 67.9242C173.877 70.7266 171.539 72.2514 170.768 72.7222C169.996 73.1934 169.739 73.3502 169.809 73.6863C169.903 74.1796 170.277 74.1575 170.931 74.0676C171.843 73.9108 176.776 71.8028 176.987 66.6455C177.338 60.0535 170.791 52.856 159.218 52.9233ZM73.368 80.6823C69.6738 84.5388 64.5306 85.9963 62.3094 84.7634C59.9249 83.44 60.8599 77.7447 65.3955 73.6642C68.1541 71.1752 71.7079 68.8652 74.0694 67.4529C74.6069 67.1389 75.4021 66.6908 76.3607 66.1301C76.5242 66.0401 76.6179 65.9954 76.6179 65.9954L77.179 65.6588C78.8386 71.4888 77.2492 76.6238 73.368 80.6823ZM100.255 63.1478C98.9687 66.1527 96.2802 73.8435 94.6437 73.4175C93.2408 73.0588 92.3755 67.2288 94.3629 61.4662C95.3682 58.5734 97.4956 55.1203 98.735 53.7754C100.746 51.6226 102.967 50.9046 103.504 51.7798C104.183 52.9233 101.049 61.2643 100.255 63.1478ZM122.442 73.3276C121.904 73.5968 121.39 73.7762 121.156 73.6416C120.992 73.5516 121.39 73.1929 121.39 73.1929C121.39 73.1929 124.172 70.3232 125.271 69.0224C125.903 68.2603 126.65 67.3635 127.445 66.3541V66.6455C127.445 70.0765 123.985 72.386 122.441 73.3276H122.442ZM139.556 69.5831C139.158 69.3138 139.228 68.417 140.561 65.6141C141.075 64.5153 142.291 62.677 144.372 60.9055C144.606 61.623 144.77 62.3183 144.746 62.9684C144.722 67.2962 141.497 68.9104 139.556 69.5831Z" fill="#74FAC0"/>
<path d="M6.695 100.938L6.4675 102.407H3.172V104.351C3.393 104.247 3.6205 104.173 3.8545 104.13C4.0885 104.086 4.30517 104.065 4.5045 104.065C4.96817 104.065 5.39067 104.182 5.772 104.416C6.15767 104.65 6.46317 104.986 6.6885 105.423C6.91817 105.861 7.033 106.383 7.033 106.99C7.033 107.596 6.8835 108.14 6.5845 108.621C6.28983 109.102 5.87817 109.481 5.3495 109.759C4.82083 110.032 4.20333 110.168 3.497 110.168C2.84267 110.168 2.26417 110.047 1.7615 109.804C1.25883 109.557 0.840667 109.23 0.507 108.823L1.69 107.744C1.90667 108.021 2.15583 108.233 2.4375 108.381C2.7235 108.524 3.0225 108.595 3.3345 108.595C3.81117 108.595 4.1925 108.45 4.4785 108.16C4.76883 107.869 4.914 107.49 4.914 107.022C4.914 106.65 4.862 106.351 4.758 106.125C4.65833 105.9 4.5175 105.737 4.3355 105.638C4.1535 105.534 3.94117 105.482 3.6985 105.482C3.53383 105.482 3.35833 105.503 3.172 105.547C2.98567 105.59 2.79283 105.668 2.5935 105.781H1.209V100.938H6.695ZM9.77092 111.403L8.16542 110.669L13.6319 99.3263L15.2244 100.061L9.77092 111.403ZM22.2848 100.938L22.0573 102.407H18.7618V104.351C18.9828 104.247 19.2103 104.173 19.4443 104.13C19.6783 104.086 19.895 104.065 20.0943 104.065C20.558 104.065 20.9805 104.182 21.3618 104.416C21.7475 104.65 22.053 104.986 22.2783 105.423C22.508 105.861 22.6228 106.383 22.6228 106.99C22.6228 107.596 22.4733 108.14 22.1743 108.621C21.8797 109.102 21.468 109.481 20.9393 109.759C20.4107 110.032 19.7932 110.168 19.0868 110.168C18.4325 110.168 17.854 110.047 17.3513 109.804C16.8487 109.557 16.4305 109.23 16.0968 108.823L17.2798 107.744C17.4965 108.021 17.7457 108.233 18.0273 108.381C18.3133 108.524 18.6123 108.595 18.9243 108.595C19.401 108.595 19.7823 108.45 20.0683 108.16C20.3587 107.869 20.5038 107.49 20.5038 107.022C20.5038 106.65 20.4518 106.351 20.3478 106.125C20.2482 105.9 20.1073 105.737 19.9253 105.638C19.7433 105.534 19.531 105.482 19.2883 105.482C19.1237 105.482 18.9482 105.503 18.7618 105.547C18.5755 105.59 18.3827 105.668 18.1833 105.781H16.7988V100.938H22.2848Z" fill="#F8F8F8" fill-opacity="0.5"/>
</svg>
