<svg width="226" height="114" viewBox="0 0 226 114" fill="none" xmlns="http://www.w3.org/2000/svg">
<rect x="0.995605" width="225.004" height="92.7952" rx="10" fill="#2D2E32"/>
<g clip-path="url(#clip0_89_102)">
<path d="M76.4573 13.4703H19.8165C16.0202 13.4703 12.9426 16.3932 12.9426 19.9988V73.7941C12.9426 77.3998 16.0202 80.3227 19.8165 80.3227H76.4573C80.2536 80.3227 83.3312 77.3998 83.3312 73.7941V19.9988C83.3312 16.3932 80.2536 13.4703 76.4573 13.4703Z" fill="#74FAC0"/>
<path fill-rule="evenodd" clip-rule="evenodd" d="M56.5231 66.6126V73.1412C57.6366 73.6897 58.9976 74.0944 60.5099 74.3686C62.0222 74.6428 63.6719 74.7733 65.3216 74.7733C66.9714 74.7733 68.4837 74.6297 69.9958 74.3294C71.5081 74.0291 72.7454 73.5329 73.8453 72.8931C74.9588 72.2011 75.9074 71.3263 76.4573 70.1511C77.0072 68.976 77.4334 67.6703 77.4334 65.9728C77.4334 64.7847 77.2409 63.7532 76.8698 62.8392C76.4986 61.9252 75.9624 61.1417 75.22 60.4889C74.5189 59.7968 73.7078 59.1832 72.7454 58.6609C71.7831 58.1386 70.6833 57.5902 69.446 57.094C68.5386 56.7415 67.7962 56.4021 66.9714 56.0625C66.2565 55.723 65.6379 55.3836 65.1842 55.044C64.6755 54.6915 64.2905 54.3259 64.0156 53.9472C63.7406 53.5555 63.6031 53.1247 63.6031 52.6416C63.6031 52.1976 63.7256 51.7929 63.9744 51.4272C64.2232 51.0617 64.5655 50.7614 65.0055 50.5002C65.4454 50.2391 65.9953 50.0432 66.6552 49.8995C67.3013 49.7559 68.0162 49.6906 68.8548 49.6906C69.4322 49.6906 70.0372 49.7312 70.642 49.8134C71.2744 49.8957 71.9206 50.0223 72.5667 50.192C73.2129 50.3618 73.8453 50.5707 74.4914 50.8318C75.0963 51.093 75.6599 51.3933 76.1411 51.7328V45.596C75.0963 45.2173 73.9415 44.93 72.7042 44.7472C71.4669 44.5645 70.0921 44.473 68.4424 44.473C66.7927 44.473 65.2804 44.6428 63.7681 44.9692C62.2559 45.2956 61.0186 45.8179 59.9188 46.536C58.8052 47.2411 57.9941 48.1029 57.3067 49.2781C56.6606 50.3749 56.3443 51.6284 56.3443 53.1952C56.3443 55.1537 56.9355 56.8512 58.1315 58.1569C59.3139 59.5931 61.156 60.6378 63.4932 61.6823C64.4418 62.0479 65.2804 62.4135 66.1053 62.7661C66.9301 63.1186 67.6176 63.4842 68.1674 63.8629C68.7586 64.2415 69.226 64.6593 69.5422 65.1033C69.8859 65.5472 70.0646 66.0695 70.0646 66.6702C70.0646 67.088 69.9574 67.4797 69.7484 67.8453C69.5395 68.2108 69.2123 68.5242 68.7723 68.7854C68.3324 69.0466 67.7962 69.2555 67.1226 69.4121C66.4764 69.5557 65.7478 69.6341 64.7855 69.6341C63.2732 69.6341 61.761 69.386 60.3862 68.8898C58.8739 68.3936 57.4992 67.6494 56.2619 66.6702L56.5231 66.6126ZM44.975 50.5525H53.7735V45.199H29.165V50.5525H37.9636V74.4469H44.975V50.5525Z" fill="#212121"/>
<path d="M97.6157 40.9128V59.6892H95.1279V40.9128H97.6157ZM103.743 40.9128V42.9504H89.0134V40.9128H103.743ZM109.242 58.2449L113.183 45.7359H115.776L110.094 61.8429C109.962 62.1867 109.788 62.5564 109.569 62.9519C109.36 63.3559 109.09 63.7385 108.758 64.0997C108.426 64.4607 108.025 64.753 107.553 64.9765C107.091 65.2087 106.537 65.3247 105.891 65.3247C105.699 65.3247 105.454 65.299 105.157 65.2474C104.861 65.1958 104.651 65.1528 104.529 65.1184L104.516 63.184C104.586 63.1926 104.695 63.2012 104.843 63.2098C105 63.227 105.11 63.2356 105.17 63.2356C105.72 63.2356 106.187 63.1625 106.571 63.0163C106.956 62.8788 107.278 62.6424 107.541 62.3071C107.811 61.9804 108.042 61.5291 108.234 60.953L109.242 58.2449ZM106.349 45.7359L110.028 56.5684L110.656 59.0831L108.915 59.96L103.704 45.7359H106.349ZM120.385 48.4182V65.0539H117.949V45.7359H120.175L120.385 48.4182ZM129.929 52.5964V52.8673C129.929 53.8817 129.808 54.8232 129.563 55.6914C129.318 56.5512 128.96 57.2992 128.49 57.9354C128.027 58.5715 127.455 59.0659 126.774 59.4184C126.093 59.7709 125.312 59.9471 124.43 59.9471C123.531 59.9471 122.737 59.801 122.047 59.5086C121.358 59.2164 120.773 58.7908 120.293 58.232C119.812 57.6732 119.429 57.0026 119.14 56.2202C118.861 55.4379 118.669 54.5566 118.565 53.5766V52.1323C118.669 51.1006 118.866 50.1764 119.154 49.3596C119.442 48.5429 119.822 47.8464 120.293 47.2704C120.773 46.6858 121.353 46.243 122.035 45.9422C122.715 45.6327 123.501 45.4779 124.391 45.4779C125.281 45.4779 126.071 45.6499 126.761 45.9937C127.45 46.329 128.031 46.8105 128.502 47.4381C128.974 48.0657 129.327 48.8179 129.563 49.6949C129.808 50.5632 129.929 51.5304 129.929 52.5964ZM127.494 52.8673V52.5964C127.494 51.9001 127.42 51.2467 127.272 50.6362C127.123 50.0172 126.892 49.4757 126.577 49.0114C126.272 48.5386 125.879 48.1689 125.399 47.9024C124.919 47.6272 124.347 47.4897 123.684 47.4897C123.073 47.4897 122.541 47.5929 122.087 47.7992C121.642 48.0056 121.262 48.2849 120.948 48.6374C120.634 48.9813 120.376 49.3768 120.175 49.8239C119.983 50.2623 119.839 50.718 119.743 51.1908V54.5309C119.917 55.1327 120.162 55.7001 120.476 56.2331C120.79 56.7575 121.209 57.1831 121.733 57.5098C122.257 57.8279 122.916 57.987 123.711 57.987C124.365 57.987 124.928 57.8537 125.399 57.5872C125.879 57.3121 126.272 56.9381 126.577 56.4653C126.892 55.9924 127.123 55.4508 127.272 54.8404C127.42 54.2213 127.494 53.5636 127.494 52.8673ZM138.898 59.9471C137.912 59.9471 137.017 59.7838 136.214 59.4571C135.419 59.1218 134.735 58.6533 134.158 58.0514C133.591 57.4497 133.154 56.7361 132.849 55.9107C132.544 55.0854 132.391 54.1826 132.391 53.2026V52.661C132.391 51.5261 132.561 50.5159 132.901 49.6304C133.242 48.7363 133.705 47.9797 134.289 47.3607C134.874 46.7417 135.538 46.2732 136.28 45.9551C137.022 45.637 137.79 45.4779 138.584 45.4779C139.597 45.4779 140.47 45.6499 141.202 45.9937C141.945 46.3376 142.551 46.8191 143.022 47.4381C143.494 48.0485 143.843 48.7706 144.07 49.6046C144.297 50.4299 144.411 51.3327 144.411 52.3128V53.3831H133.832V51.4358H141.988V51.2552C141.953 50.6362 141.822 50.0345 141.595 49.4499C141.377 48.8652 141.028 48.3838 140.548 48.0056C140.068 47.6272 139.413 47.4381 138.584 47.4381C138.034 47.4381 137.528 47.5542 137.065 47.7863C136.603 48.0098 136.205 48.3451 135.874 48.7922C135.542 49.2392 135.285 49.7852 135.101 50.4299C134.917 51.0747 134.826 51.8184 134.826 52.661V53.2026C134.826 53.8646 134.917 54.4879 135.101 55.0724C135.293 55.6485 135.569 56.1558 135.926 56.5942C136.293 57.0326 136.733 57.3765 137.249 57.6259C137.772 57.8752 138.366 57.9998 139.029 57.9998C139.885 57.9998 140.609 57.8279 141.202 57.484C141.796 57.1402 142.316 56.6802 142.761 56.1041L144.227 57.2519C143.921 57.7076 143.533 58.1417 143.062 58.5544C142.591 58.967 142.01 59.3023 141.32 59.5603C140.64 59.8181 139.832 59.9471 138.898 59.9471ZM155.487 55.9881C155.487 55.6442 155.409 55.3261 155.251 55.0338C155.103 54.7329 154.793 54.4621 154.322 54.2213C153.86 53.972 153.161 53.7571 152.227 53.5766C151.441 53.4132 150.73 53.2198 150.093 52.9962C149.464 52.7727 148.927 52.5019 148.482 52.1838C148.046 51.8657 147.71 51.4917 147.474 51.0619C147.239 50.632 147.121 50.1291 147.121 49.5531C147.121 49.0028 147.243 48.4827 147.487 47.9926C147.741 47.5026 148.094 47.0684 148.548 46.6901C149.01 46.3119 149.565 46.0153 150.21 45.8003C150.856 45.5854 151.577 45.4779 152.371 45.4779C153.506 45.4779 154.475 45.6756 155.277 46.0711C156.081 46.4666 156.696 46.9953 157.123 47.6574C157.552 48.3107 157.765 49.0372 157.765 49.8367H155.344C155.344 49.4499 155.225 49.0759 154.99 48.7148C154.763 48.3451 154.427 48.0399 153.981 47.7992C153.545 47.5585 153.008 47.4381 152.371 47.4381C151.699 47.4381 151.154 47.5412 150.735 47.7476C150.324 47.9453 150.023 48.1989 149.831 48.5084C149.648 48.8179 149.556 49.1447 149.556 49.4885C149.556 49.7464 149.599 49.9786 149.687 50.1849C149.783 50.3827 149.949 50.5675 150.184 50.7394C150.42 50.9028 150.752 51.0576 151.18 51.2037C151.607 51.3498 152.153 51.496 152.816 51.6422C153.977 51.9001 154.933 52.2096 155.684 52.5707C156.435 52.9318 156.993 53.3746 157.36 53.899C157.726 54.4234 157.909 55.0596 157.909 55.8076C157.909 56.418 157.779 56.9767 157.516 57.484C157.263 57.9912 156.892 58.4298 156.404 58.7994C155.923 59.1605 155.348 59.4442 154.676 59.6505C154.012 59.8483 153.265 59.9471 152.437 59.9471C151.188 59.9471 150.132 59.7279 149.268 59.2894C148.404 58.851 147.749 58.2836 147.304 57.5872C146.858 56.8908 146.636 56.1558 146.636 55.3819H149.071C149.107 56.0354 149.299 56.5555 149.648 56.9424C149.997 57.3207 150.425 57.5915 150.931 57.7548C151.437 57.9096 151.939 57.987 152.437 57.987C153.1 57.987 153.654 57.901 154.099 57.729C154.553 57.5571 154.898 57.3207 155.134 57.0197C155.37 56.7188 155.487 56.375 155.487 55.9881ZM166.76 57.987C167.336 57.987 167.869 57.8709 168.358 57.6387C168.846 57.4067 169.248 57.0886 169.562 56.6845C169.876 56.2718 170.056 55.8033 170.099 55.2788H172.404C172.36 56.1041 172.076 56.8736 171.552 57.5872C171.038 58.2922 170.361 58.8639 169.523 59.3023C168.685 59.7322 167.764 59.9471 166.76 59.9471C165.696 59.9471 164.766 59.7623 163.971 59.3926C163.186 59.0229 162.532 58.5157 162.008 57.8709C161.493 57.2261 161.104 56.4867 160.842 55.6528C160.589 54.8102 160.463 53.9204 160.463 52.9833V52.4418C160.463 51.5046 160.589 50.6191 160.842 49.7852C161.104 48.9426 161.493 48.1989 162.008 47.5542C162.532 46.9093 163.186 46.4021 163.971 46.0324C164.766 45.6628 165.696 45.4779 166.76 45.4779C167.869 45.4779 168.838 45.7015 169.667 46.1485C170.496 46.587 171.147 47.1888 171.618 47.9539C172.098 48.7105 172.36 49.5702 172.404 50.5331H170.099C170.056 49.9571 169.89 49.4369 169.601 48.9727C169.322 48.5084 168.938 48.1388 168.449 47.8637C167.969 47.5799 167.406 47.4381 166.76 47.4381C166.018 47.4381 165.394 47.5842 164.888 47.8766C164.39 48.1602 163.993 48.5471 163.696 49.0372C163.408 49.5187 163.199 50.0559 163.068 50.6492C162.946 51.2338 162.885 51.8313 162.885 52.4418V52.9833C162.885 53.5938 162.946 54.1956 163.068 54.7888C163.19 55.3819 163.396 55.9193 163.684 56.4007C163.98 56.8822 164.378 57.2691 164.875 57.5614C165.381 57.8451 166.01 57.987 166.76 57.987ZM177.549 47.9281V59.6892H175.127V45.7359H177.483L177.549 47.9281ZM181.975 45.6585L181.961 47.8766C181.761 47.8336 181.568 47.8078 181.386 47.7992C181.211 47.782 181.01 47.7734 180.783 47.7734C180.224 47.7734 179.732 47.8594 179.303 48.0313C178.876 48.2032 178.514 48.444 178.216 48.7535C177.92 49.063 177.684 49.4327 177.51 49.8626C177.344 50.2838 177.234 50.7481 177.182 51.2552L176.502 51.6422C176.502 50.7997 176.584 50.0087 176.75 49.2693C176.925 48.53 177.191 47.8766 177.549 47.3091C177.907 46.7331 178.361 46.286 178.91 45.968C179.469 45.6413 180.133 45.4779 180.901 45.4779C181.076 45.4779 181.276 45.4994 181.503 45.5424C181.73 45.5768 181.888 45.6155 181.975 45.6585ZM186.845 45.7359V59.6892H184.41V45.7359H186.845ZM184.226 42.0347C184.226 41.6478 184.345 41.3211 184.58 41.0546C184.825 40.7881 185.182 40.6548 185.653 40.6548C186.116 40.6548 186.47 40.7881 186.714 41.0546C186.967 41.3211 187.094 41.6478 187.094 42.0347C187.094 42.4044 186.967 42.7225 186.714 42.989C186.47 43.2469 186.116 43.3759 185.653 43.3759C185.182 43.3759 184.825 43.2469 184.58 42.989C184.345 42.7225 184.226 42.4044 184.226 42.0347ZM193.156 48.4182V65.0539H190.721V45.7359H192.946L193.156 48.4182ZM202.701 52.5964V52.8673C202.701 53.8817 202.578 54.8232 202.335 55.6914C202.09 56.5512 201.732 57.2992 201.26 57.9354C200.798 58.5715 200.226 59.0659 199.546 59.4184C198.865 59.7709 198.084 59.9471 197.202 59.9471C196.303 59.9471 195.509 59.801 194.819 59.5086C194.129 59.2164 193.544 58.7908 193.064 58.232C192.584 57.6732 192.2 57.0026 191.912 56.2202C191.633 55.4379 191.441 54.5566 191.336 53.5766V52.1323C191.441 51.1006 191.637 50.1764 191.926 49.3596C192.214 48.5429 192.593 47.8464 193.064 47.2704C193.544 46.6858 194.125 46.243 194.806 45.9422C195.487 45.6327 196.272 45.4779 197.163 45.4779C198.053 45.4779 198.843 45.6499 199.533 45.9937C200.222 46.329 200.803 46.8105 201.274 47.4381C201.745 48.0657 202.098 48.8179 202.335 49.6949C202.578 50.5632 202.701 51.5304 202.701 52.5964ZM200.266 52.8673V52.5964C200.266 51.9001 200.191 51.2467 200.043 50.6362C199.895 50.0172 199.663 49.4757 199.349 49.0114C199.044 48.5386 198.651 48.1689 198.171 47.9024C197.691 47.6272 197.119 47.4897 196.456 47.4897C195.845 47.4897 195.312 47.5929 194.858 47.7992C194.413 48.0056 194.033 48.2849 193.719 48.6374C193.405 48.9813 193.147 49.3768 192.946 49.8239C192.754 50.2623 192.61 50.718 192.515 51.1908V54.5309C192.689 55.1327 192.934 55.7001 193.248 56.2331C193.562 56.7575 193.981 57.1831 194.505 57.5098C195.028 57.8279 195.687 57.987 196.482 57.987C197.136 57.987 197.699 57.8537 198.171 57.5872C198.651 57.3121 199.044 56.9381 199.349 56.4653C199.663 55.9924 199.895 55.4508 200.043 54.8404C200.191 54.2213 200.266 53.5636 200.266 52.8673ZM211.722 45.7359V47.5671H204.063V45.7359H211.722ZM206.655 42.3442H209.077V56.2331C209.077 56.7059 209.151 57.0627 209.3 57.3035C209.448 57.5442 209.64 57.7033 209.876 57.7806C210.112 57.858 210.365 57.8967 210.635 57.8967C210.836 57.8967 211.045 57.8795 211.264 57.8451C211.491 57.8021 211.661 57.7677 211.774 57.7419L211.788 59.6892C211.596 59.7494 211.343 59.8053 211.028 59.8568C210.723 59.917 210.351 59.9471 209.915 59.9471C209.322 59.9471 208.776 59.8311 208.278 59.5989C207.781 59.3668 207.384 58.9799 207.088 58.4383C206.799 57.8881 206.655 57.1487 206.655 56.2202V42.3442Z" fill="#F8F8F8"/>
</g>
<path d="M3.081 100.051L4.8295 100.694L2.6975 105.855H7.1955V107.396H0.5785V106.031L3.081 100.051ZM6.292 103.684V109.287H4.3225L4.2965 106.063L4.5565 103.684H6.292ZM9.77092 110.743L8.16542 110.009L13.6319 98.6665L15.2244 99.401L9.77092 110.743ZM22.2848 100.278L22.0573 101.747H18.7618V103.691C18.9828 103.587 19.2103 103.513 19.4443 103.47C19.6783 103.427 19.895 103.405 20.0943 103.405C20.558 103.405 20.9805 103.522 21.3618 103.756C21.7475 103.99 22.053 104.326 22.2783 104.763C22.508 105.201 22.6228 105.723 22.6228 106.33C22.6228 106.937 22.4733 107.48 22.1743 107.961C21.8797 108.442 21.468 108.822 20.9393 109.099C20.4107 109.372 19.7932 109.508 19.0868 109.508C18.4325 109.508 17.854 109.387 17.3513 109.144C16.8487 108.897 16.4305 108.57 16.0968 108.163L17.2798 107.084C17.4965 107.361 17.7457 107.574 18.0273 107.721C18.3133 107.864 18.6123 107.935 18.9243 107.935C19.401 107.935 19.7823 107.79 20.0683 107.5C20.3587 107.21 20.5038 106.83 20.5038 106.362C20.5038 105.99 20.4518 105.691 20.3478 105.465C20.2482 105.24 20.1073 105.078 19.9253 104.978C19.7433 104.874 19.531 104.822 19.2883 104.822C19.1237 104.822 18.9482 104.844 18.7618 104.887C18.5755 104.93 18.3827 105.008 18.1833 105.121H16.7988V100.278H22.2848Z" fill="#F8F8F8" fill-opacity="0.5"/>
<defs>
<clipPath id="clip0_89_102">
<rect width="201.11" height="66.8524" fill="white" transform="translate(12.9426 13.4703)"/>
</clipPath>
</defs>
</svg>
